G04 #@! TF.GenerationSoftware,KiCad,Pcbnew,(5.1.4)-1*
G04 #@! TF.CreationDate,2019-11-04T14:48:40+01:00*
G04 #@! TF.ProjectId,Soundsensor Digital,536f756e-6473-4656-9e73-6f7220446967,rev?*
G04 #@! TF.SameCoordinates,Original*
G04 #@! TF.FileFunction,Copper,L2,Bot*
G04 #@! TF.FilePolarity,Positive*
%FSLAX46Y46*%
G04 Gerber Fmt 4.6, Leading zero omitted, Abs format (unit mm)*
G04 Created by KiCad (PCBNEW (5.1.4)-1) date 2019-11-04 14:48:40*
%MOMM*%
%LPD*%
G04 APERTURE LIST*
%ADD10C,1.600000*%
%ADD11O,1.600000X1.600000*%
%ADD12C,3.000000*%
%ADD13R,3.000000X3.000000*%
%ADD14R,1.800000X1.800000*%
%ADD15C,1.800000*%
%ADD16R,1.500000X2.500000*%
%ADD17O,1.500000X2.500000*%
%ADD18O,2.200000X3.500000*%
%ADD19C,2.000000*%
%ADD20R,1.600000X1.600000*%
%ADD21C,1.200000*%
%ADD22C,0.800000*%
%ADD23C,0.250000*%
%ADD24C,0.254000*%
G04 APERTURE END LIST*
D10*
X182245000Y-113030000D03*
D11*
X172085000Y-113030000D03*
D12*
X154940000Y-102870000D03*
D13*
X154940000Y-123360000D03*
D14*
X201295000Y-99695000D03*
D15*
X198755000Y-99695000D03*
X198755000Y-116205000D03*
D14*
X201295000Y-116205000D03*
X201295000Y-107950000D03*
D15*
X198755000Y-107950000D03*
D10*
X215900000Y-99695000D03*
D11*
X205740000Y-99695000D03*
X205740000Y-116205000D03*
D10*
X215900000Y-116205000D03*
X215900000Y-107950000D03*
D11*
X205740000Y-107950000D03*
X205740000Y-123825000D03*
D10*
X215900000Y-123825000D03*
D11*
X194310000Y-98425000D03*
D10*
X184150000Y-98425000D03*
X186690000Y-130810000D03*
D11*
X176530000Y-130810000D03*
D10*
X173355000Y-130810000D03*
D11*
X163195000Y-130810000D03*
X182245000Y-107315000D03*
D10*
X172085000Y-107315000D03*
D11*
X182245000Y-118745000D03*
D10*
X172085000Y-118745000D03*
D16*
X177165000Y-99695000D03*
D17*
X175165000Y-99695000D03*
X173165000Y-99695000D03*
D18*
X179265000Y-99695000D03*
X171065000Y-99695000D03*
D19*
X201930000Y-123135000D03*
X201930000Y-127635000D03*
X195430000Y-123135000D03*
X195430000Y-127635000D03*
D20*
X185420000Y-103505000D03*
D11*
X193040000Y-111125000D03*
X185420000Y-106045000D03*
X193040000Y-108585000D03*
X185420000Y-108585000D03*
X193040000Y-106045000D03*
X185420000Y-111125000D03*
X193040000Y-103505000D03*
D10*
X154385000Y-130810000D03*
X159385000Y-130810000D03*
X174625000Y-125730000D03*
X179625000Y-125730000D03*
D21*
X166350000Y-119920000D03*
X163850000Y-119920000D03*
D22*
X186060080Y-123517660D03*
X189865000Y-112395000D03*
X189865000Y-125730000D03*
X154940000Y-107315000D03*
X154940000Y-112395000D03*
X154940000Y-116840000D03*
X146050000Y-130810000D03*
X146050000Y-99060000D03*
X194310000Y-114300000D03*
X182880000Y-123825000D03*
X167640000Y-123190000D03*
X189230000Y-104140000D03*
X180855001Y-104259999D03*
X210820000Y-99695000D03*
X210820000Y-107950000D03*
X210820000Y-116205000D03*
X210820000Y-123190000D03*
X214630000Y-131445000D03*
X165735000Y-99060000D03*
X177165000Y-115570000D03*
X186055000Y-120015000D03*
D23*
X193839999Y-110325001D02*
X193040000Y-111125000D01*
X197855001Y-106309999D02*
X193839999Y-110325001D01*
X197855001Y-100594999D02*
X197855001Y-106309999D01*
X198755000Y-99695000D02*
X197855001Y-100594999D01*
X202445000Y-99695000D02*
X205740000Y-99695000D01*
X201295000Y-99695000D02*
X202445000Y-99695000D01*
X202445000Y-116205000D02*
X205740000Y-116205000D01*
X201295000Y-116205000D02*
X202445000Y-116205000D01*
X201295000Y-107950000D02*
X205740000Y-107950000D01*
X185329999Y-123436359D02*
X185329999Y-116930001D01*
X186060080Y-123517660D02*
X185411300Y-123517660D01*
X185411300Y-123517660D02*
X185329999Y-123436359D01*
X185329999Y-116930001D02*
X189865000Y-112395000D01*
X189865000Y-112395000D02*
X189865000Y-112395000D01*
X215900000Y-99695000D02*
X215900000Y-107950000D01*
X215900000Y-107950000D02*
X215900000Y-116205000D01*
X213360000Y-125730000D02*
X189865000Y-125730000D01*
X189865000Y-125730000D02*
X179625000Y-125730000D01*
X173815000Y-119920000D02*
X166350000Y-119920000D01*
X179625000Y-125730000D02*
X173815000Y-119920000D01*
X179625000Y-121365000D02*
X182245000Y-118745000D01*
X179625000Y-125730000D02*
X179625000Y-121365000D01*
X185420000Y-115570000D02*
X185420000Y-111125000D01*
X182245000Y-118745000D02*
X185420000Y-115570000D01*
X213995000Y-125730000D02*
X213360000Y-125730000D01*
X215900000Y-123825000D02*
X213995000Y-125730000D01*
X215900000Y-116205000D02*
X215900000Y-123825000D01*
X195430000Y-123135000D02*
X189175000Y-123135000D01*
X189175000Y-123135000D02*
X186055000Y-120015000D01*
X186055000Y-120015000D02*
X186055000Y-120015000D01*
X177800000Y-113030000D02*
X182245000Y-113030000D01*
X172085000Y-107315000D02*
X177800000Y-113030000D01*
X183044999Y-112230001D02*
X183044999Y-111595001D01*
X182245000Y-113030000D02*
X183044999Y-112230001D01*
X183044999Y-111595001D02*
X184785000Y-109855000D01*
X184785000Y-109855000D02*
X186690000Y-109855000D01*
X186690000Y-109855000D02*
X193040000Y-103505000D01*
D24*
G36*
X217755001Y-133935000D02*
G01*
X142925000Y-133935000D01*
X142925000Y-130668665D01*
X152950000Y-130668665D01*
X152950000Y-130951335D01*
X153005147Y-131228574D01*
X153113320Y-131489727D01*
X153270363Y-131724759D01*
X153470241Y-131924637D01*
X153705273Y-132081680D01*
X153966426Y-132189853D01*
X154243665Y-132245000D01*
X154526335Y-132245000D01*
X154803574Y-132189853D01*
X155064727Y-132081680D01*
X155299759Y-131924637D01*
X155499637Y-131724759D01*
X155656680Y-131489727D01*
X155764853Y-131228574D01*
X155820000Y-130951335D01*
X155820000Y-130668665D01*
X157950000Y-130668665D01*
X157950000Y-130951335D01*
X158005147Y-131228574D01*
X158113320Y-131489727D01*
X158270363Y-131724759D01*
X158470241Y-131924637D01*
X158705273Y-132081680D01*
X158966426Y-132189853D01*
X159243665Y-132245000D01*
X159526335Y-132245000D01*
X159803574Y-132189853D01*
X160064727Y-132081680D01*
X160299759Y-131924637D01*
X160499637Y-131724759D01*
X160656680Y-131489727D01*
X160764853Y-131228574D01*
X160820000Y-130951335D01*
X160820000Y-130810000D01*
X161753057Y-130810000D01*
X161780764Y-131091309D01*
X161862818Y-131361808D01*
X161996068Y-131611101D01*
X162175392Y-131829608D01*
X162393899Y-132008932D01*
X162643192Y-132142182D01*
X162913691Y-132224236D01*
X163124508Y-132245000D01*
X163265492Y-132245000D01*
X163476309Y-132224236D01*
X163746808Y-132142182D01*
X163996101Y-132008932D01*
X164214608Y-131829608D01*
X164393932Y-131611101D01*
X164527182Y-131361808D01*
X164609236Y-131091309D01*
X164636943Y-130810000D01*
X164623023Y-130668665D01*
X171920000Y-130668665D01*
X171920000Y-130951335D01*
X171975147Y-131228574D01*
X172083320Y-131489727D01*
X172240363Y-131724759D01*
X172440241Y-131924637D01*
X172675273Y-132081680D01*
X172936426Y-132189853D01*
X173213665Y-132245000D01*
X173496335Y-132245000D01*
X173773574Y-132189853D01*
X174034727Y-132081680D01*
X174269759Y-131924637D01*
X174469637Y-131724759D01*
X174626680Y-131489727D01*
X174734853Y-131228574D01*
X174790000Y-130951335D01*
X174790000Y-130810000D01*
X175088057Y-130810000D01*
X175115764Y-131091309D01*
X175197818Y-131361808D01*
X175331068Y-131611101D01*
X175510392Y-131829608D01*
X175728899Y-132008932D01*
X175978192Y-132142182D01*
X176248691Y-132224236D01*
X176459508Y-132245000D01*
X176600492Y-132245000D01*
X176811309Y-132224236D01*
X177081808Y-132142182D01*
X177331101Y-132008932D01*
X177549608Y-131829608D01*
X177728932Y-131611101D01*
X177862182Y-131361808D01*
X177944236Y-131091309D01*
X177971943Y-130810000D01*
X177958023Y-130668665D01*
X185255000Y-130668665D01*
X185255000Y-130951335D01*
X185310147Y-131228574D01*
X185418320Y-131489727D01*
X185575363Y-131724759D01*
X185775241Y-131924637D01*
X186010273Y-132081680D01*
X186271426Y-132189853D01*
X186548665Y-132245000D01*
X186831335Y-132245000D01*
X187108574Y-132189853D01*
X187369727Y-132081680D01*
X187604759Y-131924637D01*
X187804637Y-131724759D01*
X187961680Y-131489727D01*
X188069853Y-131228574D01*
X188125000Y-130951335D01*
X188125000Y-130668665D01*
X188069853Y-130391426D01*
X187961680Y-130130273D01*
X187804637Y-129895241D01*
X187604759Y-129695363D01*
X187369727Y-129538320D01*
X187108574Y-129430147D01*
X186831335Y-129375000D01*
X186548665Y-129375000D01*
X186271426Y-129430147D01*
X186010273Y-129538320D01*
X185775241Y-129695363D01*
X185575363Y-129895241D01*
X185418320Y-130130273D01*
X185310147Y-130391426D01*
X185255000Y-130668665D01*
X177958023Y-130668665D01*
X177944236Y-130528691D01*
X177862182Y-130258192D01*
X177728932Y-130008899D01*
X177549608Y-129790392D01*
X177331101Y-129611068D01*
X177081808Y-129477818D01*
X176811309Y-129395764D01*
X176600492Y-129375000D01*
X176459508Y-129375000D01*
X176248691Y-129395764D01*
X175978192Y-129477818D01*
X175728899Y-129611068D01*
X175510392Y-129790392D01*
X175331068Y-130008899D01*
X175197818Y-130258192D01*
X175115764Y-130528691D01*
X175088057Y-130810000D01*
X174790000Y-130810000D01*
X174790000Y-130668665D01*
X174734853Y-130391426D01*
X174626680Y-130130273D01*
X174469637Y-129895241D01*
X174269759Y-129695363D01*
X174034727Y-129538320D01*
X173773574Y-129430147D01*
X173496335Y-129375000D01*
X173213665Y-129375000D01*
X172936426Y-129430147D01*
X172675273Y-129538320D01*
X172440241Y-129695363D01*
X172240363Y-129895241D01*
X172083320Y-130130273D01*
X171975147Y-130391426D01*
X171920000Y-130668665D01*
X164623023Y-130668665D01*
X164609236Y-130528691D01*
X164527182Y-130258192D01*
X164393932Y-130008899D01*
X164214608Y-129790392D01*
X163996101Y-129611068D01*
X163746808Y-129477818D01*
X163476309Y-129395764D01*
X163265492Y-129375000D01*
X163124508Y-129375000D01*
X162913691Y-129395764D01*
X162643192Y-129477818D01*
X162393899Y-129611068D01*
X162175392Y-129790392D01*
X161996068Y-130008899D01*
X161862818Y-130258192D01*
X161780764Y-130528691D01*
X161753057Y-130810000D01*
X160820000Y-130810000D01*
X160820000Y-130668665D01*
X160764853Y-130391426D01*
X160656680Y-130130273D01*
X160499637Y-129895241D01*
X160299759Y-129695363D01*
X160064727Y-129538320D01*
X159803574Y-129430147D01*
X159526335Y-129375000D01*
X159243665Y-129375000D01*
X158966426Y-129430147D01*
X158705273Y-129538320D01*
X158470241Y-129695363D01*
X158270363Y-129895241D01*
X158113320Y-130130273D01*
X158005147Y-130391426D01*
X157950000Y-130668665D01*
X155820000Y-130668665D01*
X155764853Y-130391426D01*
X155656680Y-130130273D01*
X155499637Y-129895241D01*
X155299759Y-129695363D01*
X155064727Y-129538320D01*
X154803574Y-129430147D01*
X154526335Y-129375000D01*
X154243665Y-129375000D01*
X153966426Y-129430147D01*
X153705273Y-129538320D01*
X153470241Y-129695363D01*
X153270363Y-129895241D01*
X153113320Y-130130273D01*
X153005147Y-130391426D01*
X152950000Y-130668665D01*
X142925000Y-130668665D01*
X142925000Y-127473967D01*
X193795000Y-127473967D01*
X193795000Y-127796033D01*
X193857832Y-128111912D01*
X193981082Y-128409463D01*
X194160013Y-128677252D01*
X194387748Y-128904987D01*
X194655537Y-129083918D01*
X194953088Y-129207168D01*
X195268967Y-129270000D01*
X195591033Y-129270000D01*
X195906912Y-129207168D01*
X196204463Y-129083918D01*
X196472252Y-128904987D01*
X196699987Y-128677252D01*
X196878918Y-128409463D01*
X197002168Y-128111912D01*
X197065000Y-127796033D01*
X197065000Y-127473967D01*
X200295000Y-127473967D01*
X200295000Y-127796033D01*
X200357832Y-128111912D01*
X200481082Y-128409463D01*
X200660013Y-128677252D01*
X200887748Y-128904987D01*
X201155537Y-129083918D01*
X201453088Y-129207168D01*
X201768967Y-129270000D01*
X202091033Y-129270000D01*
X202406912Y-129207168D01*
X202704463Y-129083918D01*
X202972252Y-128904987D01*
X203199987Y-128677252D01*
X203378918Y-128409463D01*
X203502168Y-128111912D01*
X203565000Y-127796033D01*
X203565000Y-127473967D01*
X203502168Y-127158088D01*
X203378918Y-126860537D01*
X203199987Y-126592748D01*
X202972252Y-126365013D01*
X202704463Y-126186082D01*
X202406912Y-126062832D01*
X202091033Y-126000000D01*
X201768967Y-126000000D01*
X201453088Y-126062832D01*
X201155537Y-126186082D01*
X200887748Y-126365013D01*
X200660013Y-126592748D01*
X200481082Y-126860537D01*
X200357832Y-127158088D01*
X200295000Y-127473967D01*
X197065000Y-127473967D01*
X197002168Y-127158088D01*
X196878918Y-126860537D01*
X196699987Y-126592748D01*
X196472252Y-126365013D01*
X196204463Y-126186082D01*
X195906912Y-126062832D01*
X195591033Y-126000000D01*
X195268967Y-126000000D01*
X194953088Y-126062832D01*
X194655537Y-126186082D01*
X194387748Y-126365013D01*
X194160013Y-126592748D01*
X193981082Y-126860537D01*
X193857832Y-127158088D01*
X193795000Y-127473967D01*
X142925000Y-127473967D01*
X142925000Y-125588665D01*
X173190000Y-125588665D01*
X173190000Y-125871335D01*
X173245147Y-126148574D01*
X173353320Y-126409727D01*
X173510363Y-126644759D01*
X173710241Y-126844637D01*
X173945273Y-127001680D01*
X174206426Y-127109853D01*
X174483665Y-127165000D01*
X174766335Y-127165000D01*
X175043574Y-127109853D01*
X175304727Y-127001680D01*
X175539759Y-126844637D01*
X175661694Y-126722702D01*
X178811903Y-126722702D01*
X178883486Y-126966671D01*
X179138996Y-127087571D01*
X179413184Y-127156300D01*
X179695512Y-127170217D01*
X179975130Y-127128787D01*
X180241292Y-127033603D01*
X180366514Y-126966671D01*
X180438097Y-126722702D01*
X179625000Y-125909605D01*
X178811903Y-126722702D01*
X175661694Y-126722702D01*
X175739637Y-126644759D01*
X175896680Y-126409727D01*
X176004853Y-126148574D01*
X176060000Y-125871335D01*
X176060000Y-125800512D01*
X178184783Y-125800512D01*
X178226213Y-126080130D01*
X178321397Y-126346292D01*
X178388329Y-126471514D01*
X178632298Y-126543097D01*
X179445395Y-125730000D01*
X179804605Y-125730000D01*
X180617702Y-126543097D01*
X180861671Y-126471514D01*
X180982571Y-126216004D01*
X181051300Y-125941816D01*
X181065217Y-125659488D01*
X181023787Y-125379870D01*
X180928603Y-125113708D01*
X180861671Y-124988486D01*
X180617702Y-124916903D01*
X179804605Y-125730000D01*
X179445395Y-125730000D01*
X178632298Y-124916903D01*
X178388329Y-124988486D01*
X178267429Y-125243996D01*
X178198700Y-125518184D01*
X178184783Y-125800512D01*
X176060000Y-125800512D01*
X176060000Y-125588665D01*
X176004853Y-125311426D01*
X175896680Y-125050273D01*
X175739637Y-124815241D01*
X175661694Y-124737298D01*
X178811903Y-124737298D01*
X179625000Y-125550395D01*
X180438097Y-124737298D01*
X180366514Y-124493329D01*
X180111004Y-124372429D01*
X179836816Y-124303700D01*
X179554488Y-124289783D01*
X179274870Y-124331213D01*
X179008708Y-124426397D01*
X178883486Y-124493329D01*
X178811903Y-124737298D01*
X175661694Y-124737298D01*
X175539759Y-124615363D01*
X175304727Y-124458320D01*
X175043574Y-124350147D01*
X174766335Y-124295000D01*
X174483665Y-124295000D01*
X174206426Y-124350147D01*
X173945273Y-124458320D01*
X173710241Y-124615363D01*
X173510363Y-124815241D01*
X173353320Y-125050273D01*
X173245147Y-125311426D01*
X173190000Y-125588665D01*
X142925000Y-125588665D01*
X142925000Y-121860000D01*
X152801928Y-121860000D01*
X152801928Y-124860000D01*
X152814188Y-124984482D01*
X152850498Y-125104180D01*
X152909463Y-125214494D01*
X152988815Y-125311185D01*
X153085506Y-125390537D01*
X153195820Y-125449502D01*
X153315518Y-125485812D01*
X153440000Y-125498072D01*
X156440000Y-125498072D01*
X156564482Y-125485812D01*
X156684180Y-125449502D01*
X156794494Y-125390537D01*
X156891185Y-125311185D01*
X156970537Y-125214494D01*
X157029502Y-125104180D01*
X157065812Y-124984482D01*
X157078072Y-124860000D01*
X157078072Y-121860000D01*
X157065812Y-121735518D01*
X157029502Y-121615820D01*
X156970537Y-121505506D01*
X156891185Y-121408815D01*
X156794494Y-121329463D01*
X156684180Y-121270498D01*
X156564482Y-121234188D01*
X156440000Y-121221928D01*
X153440000Y-121221928D01*
X153315518Y-121234188D01*
X153195820Y-121270498D01*
X153085506Y-121329463D01*
X152988815Y-121408815D01*
X152909463Y-121505506D01*
X152850498Y-121615820D01*
X152814188Y-121735518D01*
X152801928Y-121860000D01*
X142925000Y-121860000D01*
X142925000Y-119798363D01*
X162615000Y-119798363D01*
X162615000Y-120041637D01*
X162662460Y-120280236D01*
X162755557Y-120504992D01*
X162890713Y-120707267D01*
X163062733Y-120879287D01*
X163265008Y-121014443D01*
X163489764Y-121107540D01*
X163728363Y-121155000D01*
X163971637Y-121155000D01*
X164210236Y-121107540D01*
X164434992Y-121014443D01*
X164637267Y-120879287D01*
X164746790Y-120769764D01*
X165679841Y-120769764D01*
X165727148Y-120993348D01*
X165948516Y-121094237D01*
X166185313Y-121150000D01*
X166428438Y-121158495D01*
X166668549Y-121119395D01*
X166896418Y-121034202D01*
X166972852Y-120993348D01*
X167020159Y-120769764D01*
X166350000Y-120099605D01*
X165679841Y-120769764D01*
X164746790Y-120769764D01*
X164809287Y-120707267D01*
X164944443Y-120504992D01*
X165037540Y-120280236D01*
X165085000Y-120041637D01*
X165085000Y-119998438D01*
X165111505Y-119998438D01*
X165150605Y-120238549D01*
X165235798Y-120466418D01*
X165276652Y-120542852D01*
X165500236Y-120590159D01*
X166170395Y-119920000D01*
X166529605Y-119920000D01*
X167199764Y-120590159D01*
X167423348Y-120542852D01*
X167524237Y-120321484D01*
X167580000Y-120084687D01*
X167588495Y-119841562D01*
X167549395Y-119601451D01*
X167464202Y-119373582D01*
X167423348Y-119297148D01*
X167199764Y-119249841D01*
X166529605Y-119920000D01*
X166170395Y-119920000D01*
X165500236Y-119249841D01*
X165276652Y-119297148D01*
X165175763Y-119518516D01*
X165120000Y-119755313D01*
X165111505Y-119998438D01*
X165085000Y-119998438D01*
X165085000Y-119798363D01*
X165037540Y-119559764D01*
X164944443Y-119335008D01*
X164809287Y-119132733D01*
X164746790Y-119070236D01*
X165679841Y-119070236D01*
X166350000Y-119740395D01*
X167020159Y-119070236D01*
X166972852Y-118846652D01*
X166751484Y-118745763D01*
X166514687Y-118690000D01*
X166271562Y-118681505D01*
X166031451Y-118720605D01*
X165803582Y-118805798D01*
X165727148Y-118846652D01*
X165679841Y-119070236D01*
X164746790Y-119070236D01*
X164637267Y-118960713D01*
X164434992Y-118825557D01*
X164210236Y-118732460D01*
X163971637Y-118685000D01*
X163728363Y-118685000D01*
X163489764Y-118732460D01*
X163265008Y-118825557D01*
X163062733Y-118960713D01*
X162890713Y-119132733D01*
X162755557Y-119335008D01*
X162662460Y-119559764D01*
X162615000Y-119798363D01*
X142925000Y-119798363D01*
X142925000Y-118603665D01*
X170650000Y-118603665D01*
X170650000Y-118886335D01*
X170705147Y-119163574D01*
X170813320Y-119424727D01*
X170970363Y-119659759D01*
X171170241Y-119859637D01*
X171405273Y-120016680D01*
X171666426Y-120124853D01*
X171943665Y-120180000D01*
X172226335Y-120180000D01*
X172503574Y-120124853D01*
X172764727Y-120016680D01*
X172999759Y-119859637D01*
X173199637Y-119659759D01*
X173356680Y-119424727D01*
X173464853Y-119163574D01*
X173478684Y-119094039D01*
X180853096Y-119094039D01*
X180893754Y-119228087D01*
X181013963Y-119482420D01*
X181181481Y-119708414D01*
X181389869Y-119897385D01*
X181631119Y-120042070D01*
X181895960Y-120136909D01*
X182118000Y-120015624D01*
X182118000Y-118872000D01*
X182372000Y-118872000D01*
X182372000Y-120015624D01*
X182594040Y-120136909D01*
X182858881Y-120042070D01*
X183100131Y-119897385D01*
X183308519Y-119708414D01*
X183476037Y-119482420D01*
X183596246Y-119228087D01*
X183636904Y-119094039D01*
X183514915Y-118872000D01*
X182372000Y-118872000D01*
X182118000Y-118872000D01*
X180975085Y-118872000D01*
X180853096Y-119094039D01*
X173478684Y-119094039D01*
X173520000Y-118886335D01*
X173520000Y-118603665D01*
X173478685Y-118395961D01*
X180853096Y-118395961D01*
X180975085Y-118618000D01*
X182118000Y-118618000D01*
X182118000Y-117474376D01*
X182372000Y-117474376D01*
X182372000Y-118618000D01*
X183514915Y-118618000D01*
X183636904Y-118395961D01*
X183596246Y-118261913D01*
X183476037Y-118007580D01*
X183308519Y-117781586D01*
X183100131Y-117592615D01*
X182858881Y-117447930D01*
X182594040Y-117353091D01*
X182372000Y-117474376D01*
X182118000Y-117474376D01*
X181895960Y-117353091D01*
X181631119Y-117447930D01*
X181389869Y-117592615D01*
X181181481Y-117781586D01*
X181013963Y-118007580D01*
X180893754Y-118261913D01*
X180853096Y-118395961D01*
X173478685Y-118395961D01*
X173464853Y-118326426D01*
X173356680Y-118065273D01*
X173199637Y-117830241D01*
X172999759Y-117630363D01*
X172764727Y-117473320D01*
X172503574Y-117365147D01*
X172226335Y-117310000D01*
X171943665Y-117310000D01*
X171666426Y-117365147D01*
X171405273Y-117473320D01*
X171170241Y-117630363D01*
X170970363Y-117830241D01*
X170813320Y-118065273D01*
X170705147Y-118326426D01*
X170650000Y-118603665D01*
X142925000Y-118603665D01*
X142925000Y-116930001D01*
X184566323Y-116930001D01*
X184570000Y-116967333D01*
X184569999Y-123399036D01*
X184566323Y-123436359D01*
X184569999Y-123473681D01*
X184569999Y-123473691D01*
X184580996Y-123585344D01*
X184608193Y-123675001D01*
X184624453Y-123728605D01*
X184695025Y-123860635D01*
X184714202Y-123884002D01*
X184789998Y-123976360D01*
X184819002Y-124000163D01*
X184847496Y-124028657D01*
X184871299Y-124057661D01*
X184987024Y-124152634D01*
X185119053Y-124223206D01*
X185262314Y-124266663D01*
X185354446Y-124275737D01*
X185400306Y-124321597D01*
X185569824Y-124434865D01*
X185758182Y-124512886D01*
X185958141Y-124552660D01*
X186162019Y-124552660D01*
X186361978Y-124512886D01*
X186550336Y-124434865D01*
X186719854Y-124321597D01*
X186864017Y-124177434D01*
X186977285Y-124007916D01*
X187055306Y-123819558D01*
X187095080Y-123619599D01*
X187095080Y-123415721D01*
X187055306Y-123215762D01*
X186977285Y-123027404D01*
X186864017Y-122857886D01*
X186719854Y-122713723D01*
X186550336Y-122600455D01*
X186361978Y-122522434D01*
X186162019Y-122482660D01*
X186089999Y-122482660D01*
X186089999Y-121124800D01*
X188611201Y-123646003D01*
X188634999Y-123675001D01*
X188750724Y-123769974D01*
X188882753Y-123840546D01*
X189026014Y-123884003D01*
X189137667Y-123895000D01*
X189137676Y-123895000D01*
X189174999Y-123898676D01*
X189212322Y-123895000D01*
X193975091Y-123895000D01*
X193981082Y-123909463D01*
X194160013Y-124177252D01*
X194387748Y-124404987D01*
X194655537Y-124583918D01*
X194953088Y-124707168D01*
X195268967Y-124770000D01*
X195591033Y-124770000D01*
X195906912Y-124707168D01*
X196204463Y-124583918D01*
X196472252Y-124404987D01*
X196699987Y-124177252D01*
X196878918Y-123909463D01*
X197002168Y-123611912D01*
X197065000Y-123296033D01*
X197065000Y-122973967D01*
X200295000Y-122973967D01*
X200295000Y-123296033D01*
X200357832Y-123611912D01*
X200481082Y-123909463D01*
X200660013Y-124177252D01*
X200887748Y-124404987D01*
X201155537Y-124583918D01*
X201453088Y-124707168D01*
X201768967Y-124770000D01*
X202091033Y-124770000D01*
X202406912Y-124707168D01*
X202704463Y-124583918D01*
X202972252Y-124404987D01*
X203199987Y-124177252D01*
X203378918Y-123909463D01*
X203413903Y-123825000D01*
X204298057Y-123825000D01*
X204325764Y-124106309D01*
X204407818Y-124376808D01*
X204541068Y-124626101D01*
X204720392Y-124844608D01*
X204938899Y-125023932D01*
X205188192Y-125157182D01*
X205458691Y-125239236D01*
X205669508Y-125260000D01*
X205810492Y-125260000D01*
X206021309Y-125239236D01*
X206291808Y-125157182D01*
X206541101Y-125023932D01*
X206759608Y-124844608D01*
X206781689Y-124817702D01*
X215086903Y-124817702D01*
X215158486Y-125061671D01*
X215413996Y-125182571D01*
X215688184Y-125251300D01*
X215970512Y-125265217D01*
X216250130Y-125223787D01*
X216516292Y-125128603D01*
X216641514Y-125061671D01*
X216713097Y-124817702D01*
X215900000Y-124004605D01*
X215086903Y-124817702D01*
X206781689Y-124817702D01*
X206938932Y-124626101D01*
X207072182Y-124376808D01*
X207154236Y-124106309D01*
X207174998Y-123895512D01*
X214459783Y-123895512D01*
X214501213Y-124175130D01*
X214596397Y-124441292D01*
X214663329Y-124566514D01*
X214907298Y-124638097D01*
X215720395Y-123825000D01*
X216079605Y-123825000D01*
X216892702Y-124638097D01*
X217136671Y-124566514D01*
X217257571Y-124311004D01*
X217326300Y-124036816D01*
X217340217Y-123754488D01*
X217298787Y-123474870D01*
X217203603Y-123208708D01*
X217136671Y-123083486D01*
X216892702Y-123011903D01*
X216079605Y-123825000D01*
X215720395Y-123825000D01*
X214907298Y-123011903D01*
X214663329Y-123083486D01*
X214542429Y-123338996D01*
X214473700Y-123613184D01*
X214459783Y-123895512D01*
X207174998Y-123895512D01*
X207181943Y-123825000D01*
X207154236Y-123543691D01*
X207072182Y-123273192D01*
X206938932Y-123023899D01*
X206781690Y-122832298D01*
X215086903Y-122832298D01*
X215900000Y-123645395D01*
X216713097Y-122832298D01*
X216641514Y-122588329D01*
X216386004Y-122467429D01*
X216111816Y-122398700D01*
X215829488Y-122384783D01*
X215549870Y-122426213D01*
X215283708Y-122521397D01*
X215158486Y-122588329D01*
X215086903Y-122832298D01*
X206781690Y-122832298D01*
X206759608Y-122805392D01*
X206541101Y-122626068D01*
X206291808Y-122492818D01*
X206021309Y-122410764D01*
X205810492Y-122390000D01*
X205669508Y-122390000D01*
X205458691Y-122410764D01*
X205188192Y-122492818D01*
X204938899Y-122626068D01*
X204720392Y-122805392D01*
X204541068Y-123023899D01*
X204407818Y-123273192D01*
X204325764Y-123543691D01*
X204298057Y-123825000D01*
X203413903Y-123825000D01*
X203502168Y-123611912D01*
X203565000Y-123296033D01*
X203565000Y-122973967D01*
X203502168Y-122658088D01*
X203378918Y-122360537D01*
X203199987Y-122092748D01*
X202972252Y-121865013D01*
X202704463Y-121686082D01*
X202406912Y-121562832D01*
X202091033Y-121500000D01*
X201768967Y-121500000D01*
X201453088Y-121562832D01*
X201155537Y-121686082D01*
X200887748Y-121865013D01*
X200660013Y-122092748D01*
X200481082Y-122360537D01*
X200357832Y-122658088D01*
X200295000Y-122973967D01*
X197065000Y-122973967D01*
X197002168Y-122658088D01*
X196878918Y-122360537D01*
X196699987Y-122092748D01*
X196472252Y-121865013D01*
X196204463Y-121686082D01*
X195906912Y-121562832D01*
X195591033Y-121500000D01*
X195268967Y-121500000D01*
X194953088Y-121562832D01*
X194655537Y-121686082D01*
X194387748Y-121865013D01*
X194160013Y-122092748D01*
X193981082Y-122360537D01*
X193975091Y-122375000D01*
X189489802Y-122375000D01*
X187090000Y-119975199D01*
X187090000Y-119913061D01*
X187050226Y-119713102D01*
X186972205Y-119524744D01*
X186858937Y-119355226D01*
X186714774Y-119211063D01*
X186545256Y-119097795D01*
X186356898Y-119019774D01*
X186156939Y-118980000D01*
X186089999Y-118980000D01*
X186089999Y-117244802D01*
X187280985Y-116053816D01*
X197220000Y-116053816D01*
X197220000Y-116356184D01*
X197278989Y-116652743D01*
X197394701Y-116932095D01*
X197562688Y-117183505D01*
X197776495Y-117397312D01*
X198027905Y-117565299D01*
X198307257Y-117681011D01*
X198603816Y-117740000D01*
X198906184Y-117740000D01*
X199202743Y-117681011D01*
X199482095Y-117565299D01*
X199733505Y-117397312D01*
X199799944Y-117330873D01*
X199805498Y-117349180D01*
X199864463Y-117459494D01*
X199943815Y-117556185D01*
X200040506Y-117635537D01*
X200150820Y-117694502D01*
X200270518Y-117730812D01*
X200395000Y-117743072D01*
X202195000Y-117743072D01*
X202319482Y-117730812D01*
X202439180Y-117694502D01*
X202549494Y-117635537D01*
X202646185Y-117556185D01*
X202725537Y-117459494D01*
X202784502Y-117349180D01*
X202820812Y-117229482D01*
X202833072Y-117105000D01*
X202833072Y-116965000D01*
X204519099Y-116965000D01*
X204541068Y-117006101D01*
X204720392Y-117224608D01*
X204938899Y-117403932D01*
X205188192Y-117537182D01*
X205458691Y-117619236D01*
X205669508Y-117640000D01*
X205810492Y-117640000D01*
X206021309Y-117619236D01*
X206291808Y-117537182D01*
X206541101Y-117403932D01*
X206759608Y-117224608D01*
X206781689Y-117197702D01*
X215086903Y-117197702D01*
X215158486Y-117441671D01*
X215413996Y-117562571D01*
X215688184Y-117631300D01*
X215970512Y-117645217D01*
X216250130Y-117603787D01*
X216516292Y-117508603D01*
X216641514Y-117441671D01*
X216713097Y-117197702D01*
X215900000Y-116384605D01*
X215086903Y-117197702D01*
X206781689Y-117197702D01*
X206938932Y-117006101D01*
X207072182Y-116756808D01*
X207154236Y-116486309D01*
X207174998Y-116275512D01*
X214459783Y-116275512D01*
X214501213Y-116555130D01*
X214596397Y-116821292D01*
X214663329Y-116946514D01*
X214907298Y-117018097D01*
X215720395Y-116205000D01*
X216079605Y-116205000D01*
X216892702Y-117018097D01*
X217136671Y-116946514D01*
X217257571Y-116691004D01*
X217326300Y-116416816D01*
X217340217Y-116134488D01*
X217298787Y-115854870D01*
X217203603Y-115588708D01*
X217136671Y-115463486D01*
X216892702Y-115391903D01*
X216079605Y-116205000D01*
X215720395Y-116205000D01*
X214907298Y-115391903D01*
X214663329Y-115463486D01*
X214542429Y-115718996D01*
X214473700Y-115993184D01*
X214459783Y-116275512D01*
X207174998Y-116275512D01*
X207181943Y-116205000D01*
X207154236Y-115923691D01*
X207072182Y-115653192D01*
X206938932Y-115403899D01*
X206781690Y-115212298D01*
X215086903Y-115212298D01*
X215900000Y-116025395D01*
X216713097Y-115212298D01*
X216641514Y-114968329D01*
X216386004Y-114847429D01*
X216111816Y-114778700D01*
X215829488Y-114764783D01*
X215549870Y-114806213D01*
X215283708Y-114901397D01*
X215158486Y-114968329D01*
X215086903Y-115212298D01*
X206781690Y-115212298D01*
X206759608Y-115185392D01*
X206541101Y-115006068D01*
X206291808Y-114872818D01*
X206021309Y-114790764D01*
X205810492Y-114770000D01*
X205669508Y-114770000D01*
X205458691Y-114790764D01*
X205188192Y-114872818D01*
X204938899Y-115006068D01*
X204720392Y-115185392D01*
X204541068Y-115403899D01*
X204519099Y-115445000D01*
X202833072Y-115445000D01*
X202833072Y-115305000D01*
X202820812Y-115180518D01*
X202784502Y-115060820D01*
X202725537Y-114950506D01*
X202646185Y-114853815D01*
X202549494Y-114774463D01*
X202439180Y-114715498D01*
X202319482Y-114679188D01*
X202195000Y-114666928D01*
X200395000Y-114666928D01*
X200270518Y-114679188D01*
X200150820Y-114715498D01*
X200040506Y-114774463D01*
X199943815Y-114853815D01*
X199864463Y-114950506D01*
X199805498Y-115060820D01*
X199799944Y-115079127D01*
X199733505Y-115012688D01*
X199482095Y-114844701D01*
X199202743Y-114728989D01*
X198906184Y-114670000D01*
X198603816Y-114670000D01*
X198307257Y-114728989D01*
X198027905Y-114844701D01*
X197776495Y-115012688D01*
X197562688Y-115226495D01*
X197394701Y-115477905D01*
X197278989Y-115757257D01*
X197220000Y-116053816D01*
X187280985Y-116053816D01*
X189904802Y-113430000D01*
X189966939Y-113430000D01*
X190166898Y-113390226D01*
X190355256Y-113312205D01*
X190524774Y-113198937D01*
X190668937Y-113054774D01*
X190782205Y-112885256D01*
X190860226Y-112696898D01*
X190900000Y-112496939D01*
X190900000Y-112293061D01*
X190860226Y-112093102D01*
X190782205Y-111904744D01*
X190668937Y-111735226D01*
X190524774Y-111591063D01*
X190355256Y-111477795D01*
X190166898Y-111399774D01*
X189966939Y-111360000D01*
X189763061Y-111360000D01*
X189563102Y-111399774D01*
X189374744Y-111477795D01*
X189205226Y-111591063D01*
X189061063Y-111735226D01*
X188947795Y-111904744D01*
X188869774Y-112093102D01*
X188830000Y-112293061D01*
X188830000Y-112355198D01*
X184818997Y-116366202D01*
X184789999Y-116390000D01*
X184766201Y-116418998D01*
X184766200Y-116418999D01*
X184695025Y-116505725D01*
X184624453Y-116637755D01*
X184580997Y-116781016D01*
X184566323Y-116930001D01*
X142925000Y-116930001D01*
X142925000Y-113030000D01*
X170643057Y-113030000D01*
X170670764Y-113311309D01*
X170752818Y-113581808D01*
X170886068Y-113831101D01*
X171065392Y-114049608D01*
X171283899Y-114228932D01*
X171533192Y-114362182D01*
X171803691Y-114444236D01*
X172014508Y-114465000D01*
X172155492Y-114465000D01*
X172366309Y-114444236D01*
X172636808Y-114362182D01*
X172886101Y-114228932D01*
X173104608Y-114049608D01*
X173283932Y-113831101D01*
X173417182Y-113581808D01*
X173499236Y-113311309D01*
X173526943Y-113030000D01*
X173499236Y-112748691D01*
X173417182Y-112478192D01*
X173283932Y-112228899D01*
X173104608Y-112010392D01*
X172886101Y-111831068D01*
X172636808Y-111697818D01*
X172366309Y-111615764D01*
X172155492Y-111595000D01*
X172014508Y-111595000D01*
X171803691Y-111615764D01*
X171533192Y-111697818D01*
X171283899Y-111831068D01*
X171065392Y-112010392D01*
X170886068Y-112228899D01*
X170752818Y-112478192D01*
X170670764Y-112748691D01*
X170643057Y-113030000D01*
X142925000Y-113030000D01*
X142925000Y-107173665D01*
X170650000Y-107173665D01*
X170650000Y-107456335D01*
X170705147Y-107733574D01*
X170813320Y-107994727D01*
X170970363Y-108229759D01*
X171170241Y-108429637D01*
X171405273Y-108586680D01*
X171666426Y-108694853D01*
X171943665Y-108750000D01*
X172226335Y-108750000D01*
X172408887Y-108713688D01*
X177236201Y-113541003D01*
X177259999Y-113570001D01*
X177288997Y-113593799D01*
X177375724Y-113664974D01*
X177507753Y-113735546D01*
X177651014Y-113779003D01*
X177800000Y-113793677D01*
X177837333Y-113790000D01*
X181026957Y-113790000D01*
X181130363Y-113944759D01*
X181330241Y-114144637D01*
X181565273Y-114301680D01*
X181826426Y-114409853D01*
X182103665Y-114465000D01*
X182386335Y-114465000D01*
X182663574Y-114409853D01*
X182924727Y-114301680D01*
X183159759Y-114144637D01*
X183359637Y-113944759D01*
X183516680Y-113709727D01*
X183624853Y-113448574D01*
X183680000Y-113171335D01*
X183680000Y-112888665D01*
X183642467Y-112699978D01*
X183679972Y-112654278D01*
X183679973Y-112654277D01*
X183750545Y-112522248D01*
X183794002Y-112378987D01*
X183804999Y-112267334D01*
X183804999Y-112267325D01*
X183808675Y-112230002D01*
X183804999Y-112192679D01*
X183804999Y-111909802D01*
X184080937Y-111633864D01*
X184188963Y-111862420D01*
X184356481Y-112088414D01*
X184564869Y-112277385D01*
X184806119Y-112422070D01*
X185070960Y-112516909D01*
X185293000Y-112395624D01*
X185293000Y-111252000D01*
X185547000Y-111252000D01*
X185547000Y-112395624D01*
X185769040Y-112516909D01*
X186033881Y-112422070D01*
X186275131Y-112277385D01*
X186483519Y-112088414D01*
X186651037Y-111862420D01*
X186771246Y-111608087D01*
X186811904Y-111474039D01*
X186689915Y-111252000D01*
X185547000Y-111252000D01*
X185293000Y-111252000D01*
X185273000Y-111252000D01*
X185273000Y-110998000D01*
X185293000Y-110998000D01*
X185293000Y-110978000D01*
X185547000Y-110978000D01*
X185547000Y-110998000D01*
X186689915Y-110998000D01*
X186811904Y-110775961D01*
X186771246Y-110641913D01*
X186757138Y-110612064D01*
X186838986Y-110604003D01*
X186982247Y-110560546D01*
X187114276Y-110489974D01*
X187230001Y-110395001D01*
X187253804Y-110365997D01*
X191600598Y-106019204D01*
X191598057Y-106045000D01*
X191625764Y-106326309D01*
X191707818Y-106596808D01*
X191841068Y-106846101D01*
X192020392Y-107064608D01*
X192238899Y-107243932D01*
X192371858Y-107315000D01*
X192238899Y-107386068D01*
X192020392Y-107565392D01*
X191841068Y-107783899D01*
X191707818Y-108033192D01*
X191625764Y-108303691D01*
X191598057Y-108585000D01*
X191625764Y-108866309D01*
X191707818Y-109136808D01*
X191841068Y-109386101D01*
X192020392Y-109604608D01*
X192238899Y-109783932D01*
X192371858Y-109855000D01*
X192238899Y-109926068D01*
X192020392Y-110105392D01*
X191841068Y-110323899D01*
X191707818Y-110573192D01*
X191625764Y-110843691D01*
X191598057Y-111125000D01*
X191625764Y-111406309D01*
X191707818Y-111676808D01*
X191841068Y-111926101D01*
X192020392Y-112144608D01*
X192238899Y-112323932D01*
X192488192Y-112457182D01*
X192758691Y-112539236D01*
X192969508Y-112560000D01*
X193110492Y-112560000D01*
X193321309Y-112539236D01*
X193591808Y-112457182D01*
X193841101Y-112323932D01*
X194059608Y-112144608D01*
X194238932Y-111926101D01*
X194372182Y-111676808D01*
X194454236Y-111406309D01*
X194481943Y-111125000D01*
X194454236Y-110843691D01*
X194440708Y-110799093D01*
X197220000Y-108019802D01*
X197220000Y-108101184D01*
X197278989Y-108397743D01*
X197394701Y-108677095D01*
X197562688Y-108928505D01*
X197776495Y-109142312D01*
X198027905Y-109310299D01*
X198307257Y-109426011D01*
X198603816Y-109485000D01*
X198906184Y-109485000D01*
X199202743Y-109426011D01*
X199482095Y-109310299D01*
X199733505Y-109142312D01*
X199799944Y-109075873D01*
X199805498Y-109094180D01*
X199864463Y-109204494D01*
X199943815Y-109301185D01*
X200040506Y-109380537D01*
X200150820Y-109439502D01*
X200270518Y-109475812D01*
X200395000Y-109488072D01*
X202195000Y-109488072D01*
X202319482Y-109475812D01*
X202439180Y-109439502D01*
X202549494Y-109380537D01*
X202646185Y-109301185D01*
X202725537Y-109204494D01*
X202784502Y-109094180D01*
X202820812Y-108974482D01*
X202833072Y-108850000D01*
X202833072Y-108710000D01*
X204519099Y-108710000D01*
X204541068Y-108751101D01*
X204720392Y-108969608D01*
X204938899Y-109148932D01*
X205188192Y-109282182D01*
X205458691Y-109364236D01*
X205669508Y-109385000D01*
X205810492Y-109385000D01*
X206021309Y-109364236D01*
X206291808Y-109282182D01*
X206541101Y-109148932D01*
X206759608Y-108969608D01*
X206781689Y-108942702D01*
X215086903Y-108942702D01*
X215158486Y-109186671D01*
X215413996Y-109307571D01*
X215688184Y-109376300D01*
X215970512Y-109390217D01*
X216250130Y-109348787D01*
X216516292Y-109253603D01*
X216641514Y-109186671D01*
X216713097Y-108942702D01*
X215900000Y-108129605D01*
X215086903Y-108942702D01*
X206781689Y-108942702D01*
X206938932Y-108751101D01*
X207072182Y-108501808D01*
X207154236Y-108231309D01*
X207174998Y-108020512D01*
X214459783Y-108020512D01*
X214501213Y-108300130D01*
X214596397Y-108566292D01*
X214663329Y-108691514D01*
X214907298Y-108763097D01*
X215720395Y-107950000D01*
X216079605Y-107950000D01*
X216892702Y-108763097D01*
X217136671Y-108691514D01*
X217257571Y-108436004D01*
X217326300Y-108161816D01*
X217340217Y-107879488D01*
X217298787Y-107599870D01*
X217203603Y-107333708D01*
X217136671Y-107208486D01*
X216892702Y-107136903D01*
X216079605Y-107950000D01*
X215720395Y-107950000D01*
X214907298Y-107136903D01*
X214663329Y-107208486D01*
X214542429Y-107463996D01*
X214473700Y-107738184D01*
X214459783Y-108020512D01*
X207174998Y-108020512D01*
X207181943Y-107950000D01*
X207154236Y-107668691D01*
X207072182Y-107398192D01*
X206938932Y-107148899D01*
X206781690Y-106957298D01*
X215086903Y-106957298D01*
X215900000Y-107770395D01*
X216713097Y-106957298D01*
X216641514Y-106713329D01*
X216386004Y-106592429D01*
X216111816Y-106523700D01*
X215829488Y-106509783D01*
X215549870Y-106551213D01*
X215283708Y-106646397D01*
X215158486Y-106713329D01*
X215086903Y-106957298D01*
X206781690Y-106957298D01*
X206759608Y-106930392D01*
X206541101Y-106751068D01*
X206291808Y-106617818D01*
X206021309Y-106535764D01*
X205810492Y-106515000D01*
X205669508Y-106515000D01*
X205458691Y-106535764D01*
X205188192Y-106617818D01*
X204938899Y-106751068D01*
X204720392Y-106930392D01*
X204541068Y-107148899D01*
X204519099Y-107190000D01*
X202833072Y-107190000D01*
X202833072Y-107050000D01*
X202820812Y-106925518D01*
X202784502Y-106805820D01*
X202725537Y-106695506D01*
X202646185Y-106598815D01*
X202549494Y-106519463D01*
X202439180Y-106460498D01*
X202319482Y-106424188D01*
X202195000Y-106411928D01*
X200395000Y-106411928D01*
X200270518Y-106424188D01*
X200150820Y-106460498D01*
X200040506Y-106519463D01*
X199943815Y-106598815D01*
X199864463Y-106695506D01*
X199805498Y-106805820D01*
X199799944Y-106824127D01*
X199733505Y-106757688D01*
X199482095Y-106589701D01*
X199202743Y-106473989D01*
X198906184Y-106415000D01*
X198608336Y-106415000D01*
X198615001Y-106347332D01*
X198615001Y-106347323D01*
X198618677Y-106310000D01*
X198615001Y-106272677D01*
X198615001Y-101230000D01*
X198906184Y-101230000D01*
X199202743Y-101171011D01*
X199482095Y-101055299D01*
X199733505Y-100887312D01*
X199799944Y-100820873D01*
X199805498Y-100839180D01*
X199864463Y-100949494D01*
X199943815Y-101046185D01*
X200040506Y-101125537D01*
X200150820Y-101184502D01*
X200270518Y-101220812D01*
X200395000Y-101233072D01*
X202195000Y-101233072D01*
X202319482Y-101220812D01*
X202439180Y-101184502D01*
X202549494Y-101125537D01*
X202646185Y-101046185D01*
X202725537Y-100949494D01*
X202784502Y-100839180D01*
X202820812Y-100719482D01*
X202833072Y-100595000D01*
X202833072Y-100455000D01*
X204519099Y-100455000D01*
X204541068Y-100496101D01*
X204720392Y-100714608D01*
X204938899Y-100893932D01*
X205188192Y-101027182D01*
X205458691Y-101109236D01*
X205669508Y-101130000D01*
X205810492Y-101130000D01*
X206021309Y-101109236D01*
X206291808Y-101027182D01*
X206541101Y-100893932D01*
X206759608Y-100714608D01*
X206781689Y-100687702D01*
X215086903Y-100687702D01*
X215158486Y-100931671D01*
X215413996Y-101052571D01*
X215688184Y-101121300D01*
X215970512Y-101135217D01*
X216250130Y-101093787D01*
X216516292Y-100998603D01*
X216641514Y-100931671D01*
X216713097Y-100687702D01*
X215900000Y-99874605D01*
X215086903Y-100687702D01*
X206781689Y-100687702D01*
X206938932Y-100496101D01*
X207072182Y-100246808D01*
X207154236Y-99976309D01*
X207174998Y-99765512D01*
X214459783Y-99765512D01*
X214501213Y-100045130D01*
X214596397Y-100311292D01*
X214663329Y-100436514D01*
X214907298Y-100508097D01*
X215720395Y-99695000D01*
X216079605Y-99695000D01*
X216892702Y-100508097D01*
X217136671Y-100436514D01*
X217257571Y-100181004D01*
X217326300Y-99906816D01*
X217340217Y-99624488D01*
X217298787Y-99344870D01*
X217203603Y-99078708D01*
X217136671Y-98953486D01*
X216892702Y-98881903D01*
X216079605Y-99695000D01*
X215720395Y-99695000D01*
X214907298Y-98881903D01*
X214663329Y-98953486D01*
X214542429Y-99208996D01*
X214473700Y-99483184D01*
X214459783Y-99765512D01*
X207174998Y-99765512D01*
X207181943Y-99695000D01*
X207154236Y-99413691D01*
X207072182Y-99143192D01*
X206938932Y-98893899D01*
X206781690Y-98702298D01*
X215086903Y-98702298D01*
X215900000Y-99515395D01*
X216713097Y-98702298D01*
X216641514Y-98458329D01*
X216386004Y-98337429D01*
X216111816Y-98268700D01*
X215829488Y-98254783D01*
X215549870Y-98296213D01*
X215283708Y-98391397D01*
X215158486Y-98458329D01*
X215086903Y-98702298D01*
X206781690Y-98702298D01*
X206759608Y-98675392D01*
X206541101Y-98496068D01*
X206291808Y-98362818D01*
X206021309Y-98280764D01*
X205810492Y-98260000D01*
X205669508Y-98260000D01*
X205458691Y-98280764D01*
X205188192Y-98362818D01*
X204938899Y-98496068D01*
X204720392Y-98675392D01*
X204541068Y-98893899D01*
X204519099Y-98935000D01*
X202833072Y-98935000D01*
X202833072Y-98795000D01*
X202820812Y-98670518D01*
X202784502Y-98550820D01*
X202725537Y-98440506D01*
X202646185Y-98343815D01*
X202549494Y-98264463D01*
X202439180Y-98205498D01*
X202319482Y-98169188D01*
X202195000Y-98156928D01*
X200395000Y-98156928D01*
X200270518Y-98169188D01*
X200150820Y-98205498D01*
X200040506Y-98264463D01*
X199943815Y-98343815D01*
X199864463Y-98440506D01*
X199805498Y-98550820D01*
X199799944Y-98569127D01*
X199733505Y-98502688D01*
X199482095Y-98334701D01*
X199202743Y-98218989D01*
X198906184Y-98160000D01*
X198603816Y-98160000D01*
X198307257Y-98218989D01*
X198027905Y-98334701D01*
X197776495Y-98502688D01*
X197562688Y-98716495D01*
X197394701Y-98967905D01*
X197278989Y-99247257D01*
X197220000Y-99543816D01*
X197220000Y-99846184D01*
X197271966Y-100107436D01*
X197262249Y-100119276D01*
X197220027Y-100170723D01*
X197170684Y-100263036D01*
X197149455Y-100302753D01*
X197105998Y-100446014D01*
X197095001Y-100557667D01*
X197095001Y-100557677D01*
X197091325Y-100594999D01*
X197095001Y-100632322D01*
X197095002Y-105995196D01*
X194479402Y-108610796D01*
X194481943Y-108585000D01*
X194454236Y-108303691D01*
X194372182Y-108033192D01*
X194238932Y-107783899D01*
X194059608Y-107565392D01*
X193841101Y-107386068D01*
X193708142Y-107315000D01*
X193841101Y-107243932D01*
X194059608Y-107064608D01*
X194238932Y-106846101D01*
X194372182Y-106596808D01*
X194454236Y-106326309D01*
X194481943Y-106045000D01*
X194454236Y-105763691D01*
X194372182Y-105493192D01*
X194238932Y-105243899D01*
X194059608Y-105025392D01*
X193841101Y-104846068D01*
X193708142Y-104775000D01*
X193841101Y-104703932D01*
X194059608Y-104524608D01*
X194238932Y-104306101D01*
X194372182Y-104056808D01*
X194454236Y-103786309D01*
X194481943Y-103505000D01*
X194454236Y-103223691D01*
X194372182Y-102953192D01*
X194238932Y-102703899D01*
X194059608Y-102485392D01*
X193841101Y-102306068D01*
X193591808Y-102172818D01*
X193321309Y-102090764D01*
X193110492Y-102070000D01*
X192969508Y-102070000D01*
X192758691Y-102090764D01*
X192488192Y-102172818D01*
X192238899Y-102306068D01*
X192020392Y-102485392D01*
X191841068Y-102703899D01*
X191707818Y-102953192D01*
X191625764Y-103223691D01*
X191598057Y-103505000D01*
X191625764Y-103786309D01*
X191639292Y-103830906D01*
X186859402Y-108610797D01*
X186861943Y-108585000D01*
X186834236Y-108303691D01*
X186752182Y-108033192D01*
X186618932Y-107783899D01*
X186439608Y-107565392D01*
X186221101Y-107386068D01*
X186088142Y-107315000D01*
X186221101Y-107243932D01*
X186439608Y-107064608D01*
X186618932Y-106846101D01*
X186752182Y-106596808D01*
X186834236Y-106326309D01*
X186861943Y-106045000D01*
X186834236Y-105763691D01*
X186752182Y-105493192D01*
X186618932Y-105243899D01*
X186439608Y-105025392D01*
X186326518Y-104932581D01*
X186344482Y-104930812D01*
X186464180Y-104894502D01*
X186574494Y-104835537D01*
X186671185Y-104756185D01*
X186750537Y-104659494D01*
X186809502Y-104549180D01*
X186845812Y-104429482D01*
X186858072Y-104305000D01*
X186858072Y-102705000D01*
X186845812Y-102580518D01*
X186809502Y-102460820D01*
X186750537Y-102350506D01*
X186671185Y-102253815D01*
X186574494Y-102174463D01*
X186464180Y-102115498D01*
X186344482Y-102079188D01*
X186220000Y-102066928D01*
X184620000Y-102066928D01*
X184495518Y-102079188D01*
X184375820Y-102115498D01*
X184265506Y-102174463D01*
X184168815Y-102253815D01*
X184089463Y-102350506D01*
X184030498Y-102460820D01*
X183994188Y-102580518D01*
X183981928Y-102705000D01*
X183981928Y-104305000D01*
X183994188Y-104429482D01*
X184030498Y-104549180D01*
X184089463Y-104659494D01*
X184168815Y-104756185D01*
X184265506Y-104835537D01*
X184375820Y-104894502D01*
X184495518Y-104930812D01*
X184513482Y-104932581D01*
X184400392Y-105025392D01*
X184221068Y-105243899D01*
X184087818Y-105493192D01*
X184005764Y-105763691D01*
X183978057Y-106045000D01*
X184005764Y-106326309D01*
X184087818Y-106596808D01*
X184221068Y-106846101D01*
X184400392Y-107064608D01*
X184618899Y-107243932D01*
X184751858Y-107315000D01*
X184618899Y-107386068D01*
X184400392Y-107565392D01*
X184221068Y-107783899D01*
X184087818Y-108033192D01*
X184005764Y-108303691D01*
X183978057Y-108585000D01*
X184005764Y-108866309D01*
X184087818Y-109136808D01*
X184206448Y-109358750D01*
X182533997Y-111031202D01*
X182504999Y-111055000D01*
X182481201Y-111083998D01*
X182481200Y-111083999D01*
X182410025Y-111170725D01*
X182366582Y-111252000D01*
X182339453Y-111302754D01*
X182295996Y-111446015D01*
X182284999Y-111557668D01*
X182284999Y-111557679D01*
X182281323Y-111595000D01*
X182103665Y-111595000D01*
X181826426Y-111650147D01*
X181565273Y-111758320D01*
X181330241Y-111915363D01*
X181130363Y-112115241D01*
X181026957Y-112270000D01*
X178114802Y-112270000D01*
X173483688Y-107638887D01*
X173520000Y-107456335D01*
X173520000Y-107315000D01*
X180803057Y-107315000D01*
X180830764Y-107596309D01*
X180912818Y-107866808D01*
X181046068Y-108116101D01*
X181225392Y-108334608D01*
X181443899Y-108513932D01*
X181693192Y-108647182D01*
X181963691Y-108729236D01*
X182174508Y-108750000D01*
X182315492Y-108750000D01*
X182526309Y-108729236D01*
X182796808Y-108647182D01*
X183046101Y-108513932D01*
X183264608Y-108334608D01*
X183443932Y-108116101D01*
X183577182Y-107866808D01*
X183659236Y-107596309D01*
X183686943Y-107315000D01*
X183659236Y-107033691D01*
X183577182Y-106763192D01*
X183443932Y-106513899D01*
X183264608Y-106295392D01*
X183046101Y-106116068D01*
X182796808Y-105982818D01*
X182526309Y-105900764D01*
X182315492Y-105880000D01*
X182174508Y-105880000D01*
X181963691Y-105900764D01*
X181693192Y-105982818D01*
X181443899Y-106116068D01*
X181225392Y-106295392D01*
X181046068Y-106513899D01*
X180912818Y-106763192D01*
X180830764Y-107033691D01*
X180803057Y-107315000D01*
X173520000Y-107315000D01*
X173520000Y-107173665D01*
X173464853Y-106896426D01*
X173356680Y-106635273D01*
X173199637Y-106400241D01*
X172999759Y-106200363D01*
X172764727Y-106043320D01*
X172503574Y-105935147D01*
X172226335Y-105880000D01*
X171943665Y-105880000D01*
X171666426Y-105935147D01*
X171405273Y-106043320D01*
X171170241Y-106200363D01*
X170970363Y-106400241D01*
X170813320Y-106635273D01*
X170705147Y-106896426D01*
X170650000Y-107173665D01*
X142925000Y-107173665D01*
X142925000Y-102659721D01*
X152805000Y-102659721D01*
X152805000Y-103080279D01*
X152887047Y-103492756D01*
X153047988Y-103881302D01*
X153281637Y-104230983D01*
X153579017Y-104528363D01*
X153928698Y-104762012D01*
X154317244Y-104922953D01*
X154729721Y-105005000D01*
X155150279Y-105005000D01*
X155562756Y-104922953D01*
X155951302Y-104762012D01*
X156300983Y-104528363D01*
X156598363Y-104230983D01*
X156832012Y-103881302D01*
X156992953Y-103492756D01*
X157075000Y-103080279D01*
X157075000Y-102659721D01*
X156992953Y-102247244D01*
X156832012Y-101858698D01*
X156598363Y-101509017D01*
X156300983Y-101211637D01*
X155951302Y-100977988D01*
X155562756Y-100817047D01*
X155150279Y-100735000D01*
X154729721Y-100735000D01*
X154317244Y-100817047D01*
X153928698Y-100977988D01*
X153579017Y-101211637D01*
X153281637Y-101509017D01*
X153047988Y-101858698D01*
X152887047Y-102247244D01*
X152805000Y-102659721D01*
X142925000Y-102659721D01*
X142925000Y-98959775D01*
X169330000Y-98959775D01*
X169330000Y-100430224D01*
X169355105Y-100685118D01*
X169454314Y-101012167D01*
X169615421Y-101313577D01*
X169832234Y-101577766D01*
X170096422Y-101794579D01*
X170397832Y-101955686D01*
X170724881Y-102054895D01*
X171065000Y-102088394D01*
X171405118Y-102054895D01*
X171732167Y-101955686D01*
X172033577Y-101794579D01*
X172297766Y-101577766D01*
X172455139Y-101386006D01*
X172632419Y-101480764D01*
X172893493Y-101559960D01*
X173165000Y-101586701D01*
X173436506Y-101559960D01*
X173697580Y-101480764D01*
X173938187Y-101352157D01*
X174149080Y-101179081D01*
X174165000Y-101159683D01*
X174180919Y-101179080D01*
X174391812Y-101352157D01*
X174632419Y-101480764D01*
X174893493Y-101559960D01*
X175165000Y-101586701D01*
X175436506Y-101559960D01*
X175697580Y-101480764D01*
X175930885Y-101356060D01*
X175963815Y-101396185D01*
X176060506Y-101475537D01*
X176170820Y-101534502D01*
X176290518Y-101570812D01*
X176415000Y-101583072D01*
X176879250Y-101580000D01*
X177038000Y-101421250D01*
X177038000Y-99822000D01*
X177018000Y-99822000D01*
X177018000Y-99568000D01*
X177038000Y-99568000D01*
X177038000Y-97968750D01*
X177292000Y-97968750D01*
X177292000Y-99568000D01*
X177312000Y-99568000D01*
X177312000Y-99822000D01*
X177292000Y-99822000D01*
X177292000Y-101421250D01*
X177450750Y-101580000D01*
X177915000Y-101583072D01*
X178027496Y-101571992D01*
X178032234Y-101577766D01*
X178296422Y-101794579D01*
X178597832Y-101955686D01*
X178924881Y-102054895D01*
X179265000Y-102088394D01*
X179605118Y-102054895D01*
X179932167Y-101955686D01*
X180233577Y-101794579D01*
X180497766Y-101577766D01*
X180714579Y-101313578D01*
X180875686Y-101012168D01*
X180974895Y-100685119D01*
X181000000Y-100430225D01*
X181000000Y-98959775D01*
X180974895Y-98704881D01*
X180875686Y-98377832D01*
X180825353Y-98283665D01*
X182715000Y-98283665D01*
X182715000Y-98566335D01*
X182770147Y-98843574D01*
X182878320Y-99104727D01*
X183035363Y-99339759D01*
X183235241Y-99539637D01*
X183470273Y-99696680D01*
X183731426Y-99804853D01*
X184008665Y-99860000D01*
X184291335Y-99860000D01*
X184568574Y-99804853D01*
X184829727Y-99696680D01*
X185064759Y-99539637D01*
X185264637Y-99339759D01*
X185421680Y-99104727D01*
X185529853Y-98843574D01*
X185585000Y-98566335D01*
X185585000Y-98425000D01*
X192868057Y-98425000D01*
X192895764Y-98706309D01*
X192977818Y-98976808D01*
X193111068Y-99226101D01*
X193290392Y-99444608D01*
X193508899Y-99623932D01*
X193758192Y-99757182D01*
X194028691Y-99839236D01*
X194239508Y-99860000D01*
X194380492Y-99860000D01*
X194591309Y-99839236D01*
X194861808Y-99757182D01*
X195111101Y-99623932D01*
X195329608Y-99444608D01*
X195508932Y-99226101D01*
X195642182Y-98976808D01*
X195724236Y-98706309D01*
X195751943Y-98425000D01*
X195724236Y-98143691D01*
X195642182Y-97873192D01*
X195508932Y-97623899D01*
X195329608Y-97405392D01*
X195111101Y-97226068D01*
X194861808Y-97092818D01*
X194591309Y-97010764D01*
X194380492Y-96990000D01*
X194239508Y-96990000D01*
X194028691Y-97010764D01*
X193758192Y-97092818D01*
X193508899Y-97226068D01*
X193290392Y-97405392D01*
X193111068Y-97623899D01*
X192977818Y-97873192D01*
X192895764Y-98143691D01*
X192868057Y-98425000D01*
X185585000Y-98425000D01*
X185585000Y-98283665D01*
X185529853Y-98006426D01*
X185421680Y-97745273D01*
X185264637Y-97510241D01*
X185064759Y-97310363D01*
X184829727Y-97153320D01*
X184568574Y-97045147D01*
X184291335Y-96990000D01*
X184008665Y-96990000D01*
X183731426Y-97045147D01*
X183470273Y-97153320D01*
X183235241Y-97310363D01*
X183035363Y-97510241D01*
X182878320Y-97745273D01*
X182770147Y-98006426D01*
X182715000Y-98283665D01*
X180825353Y-98283665D01*
X180714579Y-98076422D01*
X180497766Y-97812234D01*
X180233578Y-97595421D01*
X179932168Y-97434314D01*
X179605119Y-97335105D01*
X179265000Y-97301606D01*
X178924882Y-97335105D01*
X178597833Y-97434314D01*
X178296423Y-97595421D01*
X178032235Y-97812234D01*
X178027497Y-97818008D01*
X177915000Y-97806928D01*
X177450750Y-97810000D01*
X177292000Y-97968750D01*
X177038000Y-97968750D01*
X176879250Y-97810000D01*
X176415000Y-97806928D01*
X176290518Y-97819188D01*
X176170820Y-97855498D01*
X176060506Y-97914463D01*
X175963815Y-97993815D01*
X175930886Y-98033940D01*
X175697581Y-97909236D01*
X175436507Y-97830040D01*
X175165000Y-97803299D01*
X174893494Y-97830040D01*
X174632420Y-97909236D01*
X174391813Y-98037843D01*
X174180920Y-98210919D01*
X174165000Y-98230317D01*
X174149081Y-98210919D01*
X173938188Y-98037843D01*
X173697581Y-97909236D01*
X173436507Y-97830040D01*
X173165000Y-97803299D01*
X172893494Y-97830040D01*
X172632420Y-97909236D01*
X172455139Y-98003994D01*
X172297766Y-97812234D01*
X172033578Y-97595421D01*
X171732168Y-97434314D01*
X171405119Y-97335105D01*
X171065000Y-97301606D01*
X170724882Y-97335105D01*
X170397833Y-97434314D01*
X170096423Y-97595421D01*
X169832235Y-97812234D01*
X169615422Y-98076422D01*
X169454315Y-98377832D01*
X169355105Y-98704881D01*
X169330000Y-98959775D01*
X142925000Y-98959775D01*
X142925000Y-95935000D01*
X217755000Y-95935000D01*
X217755001Y-133935000D01*
X217755001Y-133935000D01*
G37*
X217755001Y-133935000D02*
X142925000Y-133935000D01*
X142925000Y-130668665D01*
X152950000Y-130668665D01*
X152950000Y-130951335D01*
X153005147Y-131228574D01*
X153113320Y-131489727D01*
X153270363Y-131724759D01*
X153470241Y-131924637D01*
X153705273Y-132081680D01*
X153966426Y-132189853D01*
X154243665Y-132245000D01*
X154526335Y-132245000D01*
X154803574Y-132189853D01*
X155064727Y-132081680D01*
X155299759Y-131924637D01*
X155499637Y-131724759D01*
X155656680Y-131489727D01*
X155764853Y-131228574D01*
X155820000Y-130951335D01*
X155820000Y-130668665D01*
X157950000Y-130668665D01*
X157950000Y-130951335D01*
X158005147Y-131228574D01*
X158113320Y-131489727D01*
X158270363Y-131724759D01*
X158470241Y-131924637D01*
X158705273Y-132081680D01*
X158966426Y-132189853D01*
X159243665Y-132245000D01*
X159526335Y-132245000D01*
X159803574Y-132189853D01*
X160064727Y-132081680D01*
X160299759Y-131924637D01*
X160499637Y-131724759D01*
X160656680Y-131489727D01*
X160764853Y-131228574D01*
X160820000Y-130951335D01*
X160820000Y-130810000D01*
X161753057Y-130810000D01*
X161780764Y-131091309D01*
X161862818Y-131361808D01*
X161996068Y-131611101D01*
X162175392Y-131829608D01*
X162393899Y-132008932D01*
X162643192Y-132142182D01*
X162913691Y-132224236D01*
X163124508Y-132245000D01*
X163265492Y-132245000D01*
X163476309Y-132224236D01*
X163746808Y-132142182D01*
X163996101Y-132008932D01*
X164214608Y-131829608D01*
X164393932Y-131611101D01*
X164527182Y-131361808D01*
X164609236Y-131091309D01*
X164636943Y-130810000D01*
X164623023Y-130668665D01*
X171920000Y-130668665D01*
X171920000Y-130951335D01*
X171975147Y-131228574D01*
X172083320Y-131489727D01*
X172240363Y-131724759D01*
X172440241Y-131924637D01*
X172675273Y-132081680D01*
X172936426Y-132189853D01*
X173213665Y-132245000D01*
X173496335Y-132245000D01*
X173773574Y-132189853D01*
X174034727Y-132081680D01*
X174269759Y-131924637D01*
X174469637Y-131724759D01*
X174626680Y-131489727D01*
X174734853Y-131228574D01*
X174790000Y-130951335D01*
X174790000Y-130810000D01*
X175088057Y-130810000D01*
X175115764Y-131091309D01*
X175197818Y-131361808D01*
X175331068Y-131611101D01*
X175510392Y-131829608D01*
X175728899Y-132008932D01*
X175978192Y-132142182D01*
X176248691Y-132224236D01*
X176459508Y-132245000D01*
X176600492Y-132245000D01*
X176811309Y-132224236D01*
X177081808Y-132142182D01*
X177331101Y-132008932D01*
X177549608Y-131829608D01*
X177728932Y-131611101D01*
X177862182Y-131361808D01*
X177944236Y-131091309D01*
X177971943Y-130810000D01*
X177958023Y-130668665D01*
X185255000Y-130668665D01*
X185255000Y-130951335D01*
X185310147Y-131228574D01*
X185418320Y-131489727D01*
X185575363Y-131724759D01*
X185775241Y-131924637D01*
X186010273Y-132081680D01*
X186271426Y-132189853D01*
X186548665Y-132245000D01*
X186831335Y-132245000D01*
X187108574Y-132189853D01*
X187369727Y-132081680D01*
X187604759Y-131924637D01*
X187804637Y-131724759D01*
X187961680Y-131489727D01*
X188069853Y-131228574D01*
X188125000Y-130951335D01*
X188125000Y-130668665D01*
X188069853Y-130391426D01*
X187961680Y-130130273D01*
X187804637Y-129895241D01*
X187604759Y-129695363D01*
X187369727Y-129538320D01*
X187108574Y-129430147D01*
X186831335Y-129375000D01*
X186548665Y-129375000D01*
X186271426Y-129430147D01*
X186010273Y-129538320D01*
X185775241Y-129695363D01*
X185575363Y-129895241D01*
X185418320Y-130130273D01*
X185310147Y-130391426D01*
X185255000Y-130668665D01*
X177958023Y-130668665D01*
X177944236Y-130528691D01*
X177862182Y-130258192D01*
X177728932Y-130008899D01*
X177549608Y-129790392D01*
X177331101Y-129611068D01*
X177081808Y-129477818D01*
X176811309Y-129395764D01*
X176600492Y-129375000D01*
X176459508Y-129375000D01*
X176248691Y-129395764D01*
X175978192Y-129477818D01*
X175728899Y-129611068D01*
X175510392Y-129790392D01*
X175331068Y-130008899D01*
X175197818Y-130258192D01*
X175115764Y-130528691D01*
X175088057Y-130810000D01*
X174790000Y-130810000D01*
X174790000Y-130668665D01*
X174734853Y-130391426D01*
X174626680Y-130130273D01*
X174469637Y-129895241D01*
X174269759Y-129695363D01*
X174034727Y-129538320D01*
X173773574Y-129430147D01*
X173496335Y-129375000D01*
X173213665Y-129375000D01*
X172936426Y-129430147D01*
X172675273Y-129538320D01*
X172440241Y-129695363D01*
X172240363Y-129895241D01*
X172083320Y-130130273D01*
X171975147Y-130391426D01*
X171920000Y-130668665D01*
X164623023Y-130668665D01*
X164609236Y-130528691D01*
X164527182Y-130258192D01*
X164393932Y-130008899D01*
X164214608Y-129790392D01*
X163996101Y-129611068D01*
X163746808Y-129477818D01*
X163476309Y-129395764D01*
X163265492Y-129375000D01*
X163124508Y-129375000D01*
X162913691Y-129395764D01*
X162643192Y-129477818D01*
X162393899Y-129611068D01*
X162175392Y-129790392D01*
X161996068Y-130008899D01*
X161862818Y-130258192D01*
X161780764Y-130528691D01*
X161753057Y-130810000D01*
X160820000Y-130810000D01*
X160820000Y-130668665D01*
X160764853Y-130391426D01*
X160656680Y-130130273D01*
X160499637Y-129895241D01*
X160299759Y-129695363D01*
X160064727Y-129538320D01*
X159803574Y-129430147D01*
X159526335Y-129375000D01*
X159243665Y-129375000D01*
X158966426Y-129430147D01*
X158705273Y-129538320D01*
X158470241Y-129695363D01*
X158270363Y-129895241D01*
X158113320Y-130130273D01*
X158005147Y-130391426D01*
X157950000Y-130668665D01*
X155820000Y-130668665D01*
X155764853Y-130391426D01*
X155656680Y-130130273D01*
X155499637Y-129895241D01*
X155299759Y-129695363D01*
X155064727Y-129538320D01*
X154803574Y-129430147D01*
X154526335Y-129375000D01*
X154243665Y-129375000D01*
X153966426Y-129430147D01*
X153705273Y-129538320D01*
X153470241Y-129695363D01*
X153270363Y-129895241D01*
X153113320Y-130130273D01*
X153005147Y-130391426D01*
X152950000Y-130668665D01*
X142925000Y-130668665D01*
X142925000Y-127473967D01*
X193795000Y-127473967D01*
X193795000Y-127796033D01*
X193857832Y-128111912D01*
X193981082Y-128409463D01*
X194160013Y-128677252D01*
X194387748Y-128904987D01*
X194655537Y-129083918D01*
X194953088Y-129207168D01*
X195268967Y-129270000D01*
X195591033Y-129270000D01*
X195906912Y-129207168D01*
X196204463Y-129083918D01*
X196472252Y-128904987D01*
X196699987Y-128677252D01*
X196878918Y-128409463D01*
X197002168Y-128111912D01*
X197065000Y-127796033D01*
X197065000Y-127473967D01*
X200295000Y-127473967D01*
X200295000Y-127796033D01*
X200357832Y-128111912D01*
X200481082Y-128409463D01*
X200660013Y-128677252D01*
X200887748Y-128904987D01*
X201155537Y-129083918D01*
X201453088Y-129207168D01*
X201768967Y-129270000D01*
X202091033Y-129270000D01*
X202406912Y-129207168D01*
X202704463Y-129083918D01*
X202972252Y-128904987D01*
X203199987Y-128677252D01*
X203378918Y-128409463D01*
X203502168Y-128111912D01*
X203565000Y-127796033D01*
X203565000Y-127473967D01*
X203502168Y-127158088D01*
X203378918Y-126860537D01*
X203199987Y-126592748D01*
X202972252Y-126365013D01*
X202704463Y-126186082D01*
X202406912Y-126062832D01*
X202091033Y-126000000D01*
X201768967Y-126000000D01*
X201453088Y-126062832D01*
X201155537Y-126186082D01*
X200887748Y-126365013D01*
X200660013Y-126592748D01*
X200481082Y-126860537D01*
X200357832Y-127158088D01*
X200295000Y-127473967D01*
X197065000Y-127473967D01*
X197002168Y-127158088D01*
X196878918Y-126860537D01*
X196699987Y-126592748D01*
X196472252Y-126365013D01*
X196204463Y-126186082D01*
X195906912Y-126062832D01*
X195591033Y-126000000D01*
X195268967Y-126000000D01*
X194953088Y-126062832D01*
X194655537Y-126186082D01*
X194387748Y-126365013D01*
X194160013Y-126592748D01*
X193981082Y-126860537D01*
X193857832Y-127158088D01*
X193795000Y-127473967D01*
X142925000Y-127473967D01*
X142925000Y-125588665D01*
X173190000Y-125588665D01*
X173190000Y-125871335D01*
X173245147Y-126148574D01*
X173353320Y-126409727D01*
X173510363Y-126644759D01*
X173710241Y-126844637D01*
X173945273Y-127001680D01*
X174206426Y-127109853D01*
X174483665Y-127165000D01*
X174766335Y-127165000D01*
X175043574Y-127109853D01*
X175304727Y-127001680D01*
X175539759Y-126844637D01*
X175661694Y-126722702D01*
X178811903Y-126722702D01*
X178883486Y-126966671D01*
X179138996Y-127087571D01*
X179413184Y-127156300D01*
X179695512Y-127170217D01*
X179975130Y-127128787D01*
X180241292Y-127033603D01*
X180366514Y-126966671D01*
X180438097Y-126722702D01*
X179625000Y-125909605D01*
X178811903Y-126722702D01*
X175661694Y-126722702D01*
X175739637Y-126644759D01*
X175896680Y-126409727D01*
X176004853Y-126148574D01*
X176060000Y-125871335D01*
X176060000Y-125800512D01*
X178184783Y-125800512D01*
X178226213Y-126080130D01*
X178321397Y-126346292D01*
X178388329Y-126471514D01*
X178632298Y-126543097D01*
X179445395Y-125730000D01*
X179804605Y-125730000D01*
X180617702Y-126543097D01*
X180861671Y-126471514D01*
X180982571Y-126216004D01*
X181051300Y-125941816D01*
X181065217Y-125659488D01*
X181023787Y-125379870D01*
X180928603Y-125113708D01*
X180861671Y-124988486D01*
X180617702Y-124916903D01*
X179804605Y-125730000D01*
X179445395Y-125730000D01*
X178632298Y-124916903D01*
X178388329Y-124988486D01*
X178267429Y-125243996D01*
X178198700Y-125518184D01*
X178184783Y-125800512D01*
X176060000Y-125800512D01*
X176060000Y-125588665D01*
X176004853Y-125311426D01*
X175896680Y-125050273D01*
X175739637Y-124815241D01*
X175661694Y-124737298D01*
X178811903Y-124737298D01*
X179625000Y-125550395D01*
X180438097Y-124737298D01*
X180366514Y-124493329D01*
X180111004Y-124372429D01*
X179836816Y-124303700D01*
X179554488Y-124289783D01*
X179274870Y-124331213D01*
X179008708Y-124426397D01*
X178883486Y-124493329D01*
X178811903Y-124737298D01*
X175661694Y-124737298D01*
X175539759Y-124615363D01*
X175304727Y-124458320D01*
X175043574Y-124350147D01*
X174766335Y-124295000D01*
X174483665Y-124295000D01*
X174206426Y-124350147D01*
X173945273Y-124458320D01*
X173710241Y-124615363D01*
X173510363Y-124815241D01*
X173353320Y-125050273D01*
X173245147Y-125311426D01*
X173190000Y-125588665D01*
X142925000Y-125588665D01*
X142925000Y-121860000D01*
X152801928Y-121860000D01*
X152801928Y-124860000D01*
X152814188Y-124984482D01*
X152850498Y-125104180D01*
X152909463Y-125214494D01*
X152988815Y-125311185D01*
X153085506Y-125390537D01*
X153195820Y-125449502D01*
X153315518Y-125485812D01*
X153440000Y-125498072D01*
X156440000Y-125498072D01*
X156564482Y-125485812D01*
X156684180Y-125449502D01*
X156794494Y-125390537D01*
X156891185Y-125311185D01*
X156970537Y-125214494D01*
X157029502Y-125104180D01*
X157065812Y-124984482D01*
X157078072Y-124860000D01*
X157078072Y-121860000D01*
X157065812Y-121735518D01*
X157029502Y-121615820D01*
X156970537Y-121505506D01*
X156891185Y-121408815D01*
X156794494Y-121329463D01*
X156684180Y-121270498D01*
X156564482Y-121234188D01*
X156440000Y-121221928D01*
X153440000Y-121221928D01*
X153315518Y-121234188D01*
X153195820Y-121270498D01*
X153085506Y-121329463D01*
X152988815Y-121408815D01*
X152909463Y-121505506D01*
X152850498Y-121615820D01*
X152814188Y-121735518D01*
X152801928Y-121860000D01*
X142925000Y-121860000D01*
X142925000Y-119798363D01*
X162615000Y-119798363D01*
X162615000Y-120041637D01*
X162662460Y-120280236D01*
X162755557Y-120504992D01*
X162890713Y-120707267D01*
X163062733Y-120879287D01*
X163265008Y-121014443D01*
X163489764Y-121107540D01*
X163728363Y-121155000D01*
X163971637Y-121155000D01*
X164210236Y-121107540D01*
X164434992Y-121014443D01*
X164637267Y-120879287D01*
X164746790Y-120769764D01*
X165679841Y-120769764D01*
X165727148Y-120993348D01*
X165948516Y-121094237D01*
X166185313Y-121150000D01*
X166428438Y-121158495D01*
X166668549Y-121119395D01*
X166896418Y-121034202D01*
X166972852Y-120993348D01*
X167020159Y-120769764D01*
X166350000Y-120099605D01*
X165679841Y-120769764D01*
X164746790Y-120769764D01*
X164809287Y-120707267D01*
X164944443Y-120504992D01*
X165037540Y-120280236D01*
X165085000Y-120041637D01*
X165085000Y-119998438D01*
X165111505Y-119998438D01*
X165150605Y-120238549D01*
X165235798Y-120466418D01*
X165276652Y-120542852D01*
X165500236Y-120590159D01*
X166170395Y-119920000D01*
X166529605Y-119920000D01*
X167199764Y-120590159D01*
X167423348Y-120542852D01*
X167524237Y-120321484D01*
X167580000Y-120084687D01*
X167588495Y-119841562D01*
X167549395Y-119601451D01*
X167464202Y-119373582D01*
X167423348Y-119297148D01*
X167199764Y-119249841D01*
X166529605Y-119920000D01*
X166170395Y-119920000D01*
X165500236Y-119249841D01*
X165276652Y-119297148D01*
X165175763Y-119518516D01*
X165120000Y-119755313D01*
X165111505Y-119998438D01*
X165085000Y-119998438D01*
X165085000Y-119798363D01*
X165037540Y-119559764D01*
X164944443Y-119335008D01*
X164809287Y-119132733D01*
X164746790Y-119070236D01*
X165679841Y-119070236D01*
X166350000Y-119740395D01*
X167020159Y-119070236D01*
X166972852Y-118846652D01*
X166751484Y-118745763D01*
X166514687Y-118690000D01*
X166271562Y-118681505D01*
X166031451Y-118720605D01*
X165803582Y-118805798D01*
X165727148Y-118846652D01*
X165679841Y-119070236D01*
X164746790Y-119070236D01*
X164637267Y-118960713D01*
X164434992Y-118825557D01*
X164210236Y-118732460D01*
X163971637Y-118685000D01*
X163728363Y-118685000D01*
X163489764Y-118732460D01*
X163265008Y-118825557D01*
X163062733Y-118960713D01*
X162890713Y-119132733D01*
X162755557Y-119335008D01*
X162662460Y-119559764D01*
X162615000Y-119798363D01*
X142925000Y-119798363D01*
X142925000Y-118603665D01*
X170650000Y-118603665D01*
X170650000Y-118886335D01*
X170705147Y-119163574D01*
X170813320Y-119424727D01*
X170970363Y-119659759D01*
X171170241Y-119859637D01*
X171405273Y-120016680D01*
X171666426Y-120124853D01*
X171943665Y-120180000D01*
X172226335Y-120180000D01*
X172503574Y-120124853D01*
X172764727Y-120016680D01*
X172999759Y-119859637D01*
X173199637Y-119659759D01*
X173356680Y-119424727D01*
X173464853Y-119163574D01*
X173478684Y-119094039D01*
X180853096Y-119094039D01*
X180893754Y-119228087D01*
X181013963Y-119482420D01*
X181181481Y-119708414D01*
X181389869Y-119897385D01*
X181631119Y-120042070D01*
X181895960Y-120136909D01*
X182118000Y-120015624D01*
X182118000Y-118872000D01*
X182372000Y-118872000D01*
X182372000Y-120015624D01*
X182594040Y-120136909D01*
X182858881Y-120042070D01*
X183100131Y-119897385D01*
X183308519Y-119708414D01*
X183476037Y-119482420D01*
X183596246Y-119228087D01*
X183636904Y-119094039D01*
X183514915Y-118872000D01*
X182372000Y-118872000D01*
X182118000Y-118872000D01*
X180975085Y-118872000D01*
X180853096Y-119094039D01*
X173478684Y-119094039D01*
X173520000Y-118886335D01*
X173520000Y-118603665D01*
X173478685Y-118395961D01*
X180853096Y-118395961D01*
X180975085Y-118618000D01*
X182118000Y-118618000D01*
X182118000Y-117474376D01*
X182372000Y-117474376D01*
X182372000Y-118618000D01*
X183514915Y-118618000D01*
X183636904Y-118395961D01*
X183596246Y-118261913D01*
X183476037Y-118007580D01*
X183308519Y-117781586D01*
X183100131Y-117592615D01*
X182858881Y-117447930D01*
X182594040Y-117353091D01*
X182372000Y-117474376D01*
X182118000Y-117474376D01*
X181895960Y-117353091D01*
X181631119Y-117447930D01*
X181389869Y-117592615D01*
X181181481Y-117781586D01*
X181013963Y-118007580D01*
X180893754Y-118261913D01*
X180853096Y-118395961D01*
X173478685Y-118395961D01*
X173464853Y-118326426D01*
X173356680Y-118065273D01*
X173199637Y-117830241D01*
X172999759Y-117630363D01*
X172764727Y-117473320D01*
X172503574Y-117365147D01*
X172226335Y-117310000D01*
X171943665Y-117310000D01*
X171666426Y-117365147D01*
X171405273Y-117473320D01*
X171170241Y-117630363D01*
X170970363Y-117830241D01*
X170813320Y-118065273D01*
X170705147Y-118326426D01*
X170650000Y-118603665D01*
X142925000Y-118603665D01*
X142925000Y-116930001D01*
X184566323Y-116930001D01*
X184570000Y-116967333D01*
X184569999Y-123399036D01*
X184566323Y-123436359D01*
X184569999Y-123473681D01*
X184569999Y-123473691D01*
X184580996Y-123585344D01*
X184608193Y-123675001D01*
X184624453Y-123728605D01*
X184695025Y-123860635D01*
X184714202Y-123884002D01*
X184789998Y-123976360D01*
X184819002Y-124000163D01*
X184847496Y-124028657D01*
X184871299Y-124057661D01*
X184987024Y-124152634D01*
X185119053Y-124223206D01*
X185262314Y-124266663D01*
X185354446Y-124275737D01*
X185400306Y-124321597D01*
X185569824Y-124434865D01*
X185758182Y-124512886D01*
X185958141Y-124552660D01*
X186162019Y-124552660D01*
X186361978Y-124512886D01*
X186550336Y-124434865D01*
X186719854Y-124321597D01*
X186864017Y-124177434D01*
X186977285Y-124007916D01*
X187055306Y-123819558D01*
X187095080Y-123619599D01*
X187095080Y-123415721D01*
X187055306Y-123215762D01*
X186977285Y-123027404D01*
X186864017Y-122857886D01*
X186719854Y-122713723D01*
X186550336Y-122600455D01*
X186361978Y-122522434D01*
X186162019Y-122482660D01*
X186089999Y-122482660D01*
X186089999Y-121124800D01*
X188611201Y-123646003D01*
X188634999Y-123675001D01*
X188750724Y-123769974D01*
X188882753Y-123840546D01*
X189026014Y-123884003D01*
X189137667Y-123895000D01*
X189137676Y-123895000D01*
X189174999Y-123898676D01*
X189212322Y-123895000D01*
X193975091Y-123895000D01*
X193981082Y-123909463D01*
X194160013Y-124177252D01*
X194387748Y-124404987D01*
X194655537Y-124583918D01*
X194953088Y-124707168D01*
X195268967Y-124770000D01*
X195591033Y-124770000D01*
X195906912Y-124707168D01*
X196204463Y-124583918D01*
X196472252Y-124404987D01*
X196699987Y-124177252D01*
X196878918Y-123909463D01*
X197002168Y-123611912D01*
X197065000Y-123296033D01*
X197065000Y-122973967D01*
X200295000Y-122973967D01*
X200295000Y-123296033D01*
X200357832Y-123611912D01*
X200481082Y-123909463D01*
X200660013Y-124177252D01*
X200887748Y-124404987D01*
X201155537Y-124583918D01*
X201453088Y-124707168D01*
X201768967Y-124770000D01*
X202091033Y-124770000D01*
X202406912Y-124707168D01*
X202704463Y-124583918D01*
X202972252Y-124404987D01*
X203199987Y-124177252D01*
X203378918Y-123909463D01*
X203413903Y-123825000D01*
X204298057Y-123825000D01*
X204325764Y-124106309D01*
X204407818Y-124376808D01*
X204541068Y-124626101D01*
X204720392Y-124844608D01*
X204938899Y-125023932D01*
X205188192Y-125157182D01*
X205458691Y-125239236D01*
X205669508Y-125260000D01*
X205810492Y-125260000D01*
X206021309Y-125239236D01*
X206291808Y-125157182D01*
X206541101Y-125023932D01*
X206759608Y-124844608D01*
X206781689Y-124817702D01*
X215086903Y-124817702D01*
X215158486Y-125061671D01*
X215413996Y-125182571D01*
X215688184Y-125251300D01*
X215970512Y-125265217D01*
X216250130Y-125223787D01*
X216516292Y-125128603D01*
X216641514Y-125061671D01*
X216713097Y-124817702D01*
X215900000Y-124004605D01*
X215086903Y-124817702D01*
X206781689Y-124817702D01*
X206938932Y-124626101D01*
X207072182Y-124376808D01*
X207154236Y-124106309D01*
X207174998Y-123895512D01*
X214459783Y-123895512D01*
X214501213Y-124175130D01*
X214596397Y-124441292D01*
X214663329Y-124566514D01*
X214907298Y-124638097D01*
X215720395Y-123825000D01*
X216079605Y-123825000D01*
X216892702Y-124638097D01*
X217136671Y-124566514D01*
X217257571Y-124311004D01*
X217326300Y-124036816D01*
X217340217Y-123754488D01*
X217298787Y-123474870D01*
X217203603Y-123208708D01*
X217136671Y-123083486D01*
X216892702Y-123011903D01*
X216079605Y-123825000D01*
X215720395Y-123825000D01*
X214907298Y-123011903D01*
X214663329Y-123083486D01*
X214542429Y-123338996D01*
X214473700Y-123613184D01*
X214459783Y-123895512D01*
X207174998Y-123895512D01*
X207181943Y-123825000D01*
X207154236Y-123543691D01*
X207072182Y-123273192D01*
X206938932Y-123023899D01*
X206781690Y-122832298D01*
X215086903Y-122832298D01*
X215900000Y-123645395D01*
X216713097Y-122832298D01*
X216641514Y-122588329D01*
X216386004Y-122467429D01*
X216111816Y-122398700D01*
X215829488Y-122384783D01*
X215549870Y-122426213D01*
X215283708Y-122521397D01*
X215158486Y-122588329D01*
X215086903Y-122832298D01*
X206781690Y-122832298D01*
X206759608Y-122805392D01*
X206541101Y-122626068D01*
X206291808Y-122492818D01*
X206021309Y-122410764D01*
X205810492Y-122390000D01*
X205669508Y-122390000D01*
X205458691Y-122410764D01*
X205188192Y-122492818D01*
X204938899Y-122626068D01*
X204720392Y-122805392D01*
X204541068Y-123023899D01*
X204407818Y-123273192D01*
X204325764Y-123543691D01*
X204298057Y-123825000D01*
X203413903Y-123825000D01*
X203502168Y-123611912D01*
X203565000Y-123296033D01*
X203565000Y-122973967D01*
X203502168Y-122658088D01*
X203378918Y-122360537D01*
X203199987Y-122092748D01*
X202972252Y-121865013D01*
X202704463Y-121686082D01*
X202406912Y-121562832D01*
X202091033Y-121500000D01*
X201768967Y-121500000D01*
X201453088Y-121562832D01*
X201155537Y-121686082D01*
X200887748Y-121865013D01*
X200660013Y-122092748D01*
X200481082Y-122360537D01*
X200357832Y-122658088D01*
X200295000Y-122973967D01*
X197065000Y-122973967D01*
X197002168Y-122658088D01*
X196878918Y-122360537D01*
X196699987Y-122092748D01*
X196472252Y-121865013D01*
X196204463Y-121686082D01*
X195906912Y-121562832D01*
X195591033Y-121500000D01*
X195268967Y-121500000D01*
X194953088Y-121562832D01*
X194655537Y-121686082D01*
X194387748Y-121865013D01*
X194160013Y-122092748D01*
X193981082Y-122360537D01*
X193975091Y-122375000D01*
X189489802Y-122375000D01*
X187090000Y-119975199D01*
X187090000Y-119913061D01*
X187050226Y-119713102D01*
X186972205Y-119524744D01*
X186858937Y-119355226D01*
X186714774Y-119211063D01*
X186545256Y-119097795D01*
X186356898Y-119019774D01*
X186156939Y-118980000D01*
X186089999Y-118980000D01*
X186089999Y-117244802D01*
X187280985Y-116053816D01*
X197220000Y-116053816D01*
X197220000Y-116356184D01*
X197278989Y-116652743D01*
X197394701Y-116932095D01*
X197562688Y-117183505D01*
X197776495Y-117397312D01*
X198027905Y-117565299D01*
X198307257Y-117681011D01*
X198603816Y-117740000D01*
X198906184Y-117740000D01*
X199202743Y-117681011D01*
X199482095Y-117565299D01*
X199733505Y-117397312D01*
X199799944Y-117330873D01*
X199805498Y-117349180D01*
X199864463Y-117459494D01*
X199943815Y-117556185D01*
X200040506Y-117635537D01*
X200150820Y-117694502D01*
X200270518Y-117730812D01*
X200395000Y-117743072D01*
X202195000Y-117743072D01*
X202319482Y-117730812D01*
X202439180Y-117694502D01*
X202549494Y-117635537D01*
X202646185Y-117556185D01*
X202725537Y-117459494D01*
X202784502Y-117349180D01*
X202820812Y-117229482D01*
X202833072Y-117105000D01*
X202833072Y-116965000D01*
X204519099Y-116965000D01*
X204541068Y-117006101D01*
X204720392Y-117224608D01*
X204938899Y-117403932D01*
X205188192Y-117537182D01*
X205458691Y-117619236D01*
X205669508Y-117640000D01*
X205810492Y-117640000D01*
X206021309Y-117619236D01*
X206291808Y-117537182D01*
X206541101Y-117403932D01*
X206759608Y-117224608D01*
X206781689Y-117197702D01*
X215086903Y-117197702D01*
X215158486Y-117441671D01*
X215413996Y-117562571D01*
X215688184Y-117631300D01*
X215970512Y-117645217D01*
X216250130Y-117603787D01*
X216516292Y-117508603D01*
X216641514Y-117441671D01*
X216713097Y-117197702D01*
X215900000Y-116384605D01*
X215086903Y-117197702D01*
X206781689Y-117197702D01*
X206938932Y-117006101D01*
X207072182Y-116756808D01*
X207154236Y-116486309D01*
X207174998Y-116275512D01*
X214459783Y-116275512D01*
X214501213Y-116555130D01*
X214596397Y-116821292D01*
X214663329Y-116946514D01*
X214907298Y-117018097D01*
X215720395Y-116205000D01*
X216079605Y-116205000D01*
X216892702Y-117018097D01*
X217136671Y-116946514D01*
X217257571Y-116691004D01*
X217326300Y-116416816D01*
X217340217Y-116134488D01*
X217298787Y-115854870D01*
X217203603Y-115588708D01*
X217136671Y-115463486D01*
X216892702Y-115391903D01*
X216079605Y-116205000D01*
X215720395Y-116205000D01*
X214907298Y-115391903D01*
X214663329Y-115463486D01*
X214542429Y-115718996D01*
X214473700Y-115993184D01*
X214459783Y-116275512D01*
X207174998Y-116275512D01*
X207181943Y-116205000D01*
X207154236Y-115923691D01*
X207072182Y-115653192D01*
X206938932Y-115403899D01*
X206781690Y-115212298D01*
X215086903Y-115212298D01*
X215900000Y-116025395D01*
X216713097Y-115212298D01*
X216641514Y-114968329D01*
X216386004Y-114847429D01*
X216111816Y-114778700D01*
X215829488Y-114764783D01*
X215549870Y-114806213D01*
X215283708Y-114901397D01*
X215158486Y-114968329D01*
X215086903Y-115212298D01*
X206781690Y-115212298D01*
X206759608Y-115185392D01*
X206541101Y-115006068D01*
X206291808Y-114872818D01*
X206021309Y-114790764D01*
X205810492Y-114770000D01*
X205669508Y-114770000D01*
X205458691Y-114790764D01*
X205188192Y-114872818D01*
X204938899Y-115006068D01*
X204720392Y-115185392D01*
X204541068Y-115403899D01*
X204519099Y-115445000D01*
X202833072Y-115445000D01*
X202833072Y-115305000D01*
X202820812Y-115180518D01*
X202784502Y-115060820D01*
X202725537Y-114950506D01*
X202646185Y-114853815D01*
X202549494Y-114774463D01*
X202439180Y-114715498D01*
X202319482Y-114679188D01*
X202195000Y-114666928D01*
X200395000Y-114666928D01*
X200270518Y-114679188D01*
X200150820Y-114715498D01*
X200040506Y-114774463D01*
X199943815Y-114853815D01*
X199864463Y-114950506D01*
X199805498Y-115060820D01*
X199799944Y-115079127D01*
X199733505Y-115012688D01*
X199482095Y-114844701D01*
X199202743Y-114728989D01*
X198906184Y-114670000D01*
X198603816Y-114670000D01*
X198307257Y-114728989D01*
X198027905Y-114844701D01*
X197776495Y-115012688D01*
X197562688Y-115226495D01*
X197394701Y-115477905D01*
X197278989Y-115757257D01*
X197220000Y-116053816D01*
X187280985Y-116053816D01*
X189904802Y-113430000D01*
X189966939Y-113430000D01*
X190166898Y-113390226D01*
X190355256Y-113312205D01*
X190524774Y-113198937D01*
X190668937Y-113054774D01*
X190782205Y-112885256D01*
X190860226Y-112696898D01*
X190900000Y-112496939D01*
X190900000Y-112293061D01*
X190860226Y-112093102D01*
X190782205Y-111904744D01*
X190668937Y-111735226D01*
X190524774Y-111591063D01*
X190355256Y-111477795D01*
X190166898Y-111399774D01*
X189966939Y-111360000D01*
X189763061Y-111360000D01*
X189563102Y-111399774D01*
X189374744Y-111477795D01*
X189205226Y-111591063D01*
X189061063Y-111735226D01*
X188947795Y-111904744D01*
X188869774Y-112093102D01*
X188830000Y-112293061D01*
X188830000Y-112355198D01*
X184818997Y-116366202D01*
X184789999Y-116390000D01*
X184766201Y-116418998D01*
X184766200Y-116418999D01*
X184695025Y-116505725D01*
X184624453Y-116637755D01*
X184580997Y-116781016D01*
X184566323Y-116930001D01*
X142925000Y-116930001D01*
X142925000Y-113030000D01*
X170643057Y-113030000D01*
X170670764Y-113311309D01*
X170752818Y-113581808D01*
X170886068Y-113831101D01*
X171065392Y-114049608D01*
X171283899Y-114228932D01*
X171533192Y-114362182D01*
X171803691Y-114444236D01*
X172014508Y-114465000D01*
X172155492Y-114465000D01*
X172366309Y-114444236D01*
X172636808Y-114362182D01*
X172886101Y-114228932D01*
X173104608Y-114049608D01*
X173283932Y-113831101D01*
X173417182Y-113581808D01*
X173499236Y-113311309D01*
X173526943Y-113030000D01*
X173499236Y-112748691D01*
X173417182Y-112478192D01*
X173283932Y-112228899D01*
X173104608Y-112010392D01*
X172886101Y-111831068D01*
X172636808Y-111697818D01*
X172366309Y-111615764D01*
X172155492Y-111595000D01*
X172014508Y-111595000D01*
X171803691Y-111615764D01*
X171533192Y-111697818D01*
X171283899Y-111831068D01*
X171065392Y-112010392D01*
X170886068Y-112228899D01*
X170752818Y-112478192D01*
X170670764Y-112748691D01*
X170643057Y-113030000D01*
X142925000Y-113030000D01*
X142925000Y-107173665D01*
X170650000Y-107173665D01*
X170650000Y-107456335D01*
X170705147Y-107733574D01*
X170813320Y-107994727D01*
X170970363Y-108229759D01*
X171170241Y-108429637D01*
X171405273Y-108586680D01*
X171666426Y-108694853D01*
X171943665Y-108750000D01*
X172226335Y-108750000D01*
X172408887Y-108713688D01*
X177236201Y-113541003D01*
X177259999Y-113570001D01*
X177288997Y-113593799D01*
X177375724Y-113664974D01*
X177507753Y-113735546D01*
X177651014Y-113779003D01*
X177800000Y-113793677D01*
X177837333Y-113790000D01*
X181026957Y-113790000D01*
X181130363Y-113944759D01*
X181330241Y-114144637D01*
X181565273Y-114301680D01*
X181826426Y-114409853D01*
X182103665Y-114465000D01*
X182386335Y-114465000D01*
X182663574Y-114409853D01*
X182924727Y-114301680D01*
X183159759Y-114144637D01*
X183359637Y-113944759D01*
X183516680Y-113709727D01*
X183624853Y-113448574D01*
X183680000Y-113171335D01*
X183680000Y-112888665D01*
X183642467Y-112699978D01*
X183679972Y-112654278D01*
X183679973Y-112654277D01*
X183750545Y-112522248D01*
X183794002Y-112378987D01*
X183804999Y-112267334D01*
X183804999Y-112267325D01*
X183808675Y-112230002D01*
X183804999Y-112192679D01*
X183804999Y-111909802D01*
X184080937Y-111633864D01*
X184188963Y-111862420D01*
X184356481Y-112088414D01*
X184564869Y-112277385D01*
X184806119Y-112422070D01*
X185070960Y-112516909D01*
X185293000Y-112395624D01*
X185293000Y-111252000D01*
X185547000Y-111252000D01*
X185547000Y-112395624D01*
X185769040Y-112516909D01*
X186033881Y-112422070D01*
X186275131Y-112277385D01*
X186483519Y-112088414D01*
X186651037Y-111862420D01*
X186771246Y-111608087D01*
X186811904Y-111474039D01*
X186689915Y-111252000D01*
X185547000Y-111252000D01*
X185293000Y-111252000D01*
X185273000Y-111252000D01*
X185273000Y-110998000D01*
X185293000Y-110998000D01*
X185293000Y-110978000D01*
X185547000Y-110978000D01*
X185547000Y-110998000D01*
X186689915Y-110998000D01*
X186811904Y-110775961D01*
X186771246Y-110641913D01*
X186757138Y-110612064D01*
X186838986Y-110604003D01*
X186982247Y-110560546D01*
X187114276Y-110489974D01*
X187230001Y-110395001D01*
X187253804Y-110365997D01*
X191600598Y-106019204D01*
X191598057Y-106045000D01*
X191625764Y-106326309D01*
X191707818Y-106596808D01*
X191841068Y-106846101D01*
X192020392Y-107064608D01*
X192238899Y-107243932D01*
X192371858Y-107315000D01*
X192238899Y-107386068D01*
X192020392Y-107565392D01*
X191841068Y-107783899D01*
X191707818Y-108033192D01*
X191625764Y-108303691D01*
X191598057Y-108585000D01*
X191625764Y-108866309D01*
X191707818Y-109136808D01*
X191841068Y-109386101D01*
X192020392Y-109604608D01*
X192238899Y-109783932D01*
X192371858Y-109855000D01*
X192238899Y-109926068D01*
X192020392Y-110105392D01*
X191841068Y-110323899D01*
X191707818Y-110573192D01*
X191625764Y-110843691D01*
X191598057Y-111125000D01*
X191625764Y-111406309D01*
X191707818Y-111676808D01*
X191841068Y-111926101D01*
X192020392Y-112144608D01*
X192238899Y-112323932D01*
X192488192Y-112457182D01*
X192758691Y-112539236D01*
X192969508Y-112560000D01*
X193110492Y-112560000D01*
X193321309Y-112539236D01*
X193591808Y-112457182D01*
X193841101Y-112323932D01*
X194059608Y-112144608D01*
X194238932Y-111926101D01*
X194372182Y-111676808D01*
X194454236Y-111406309D01*
X194481943Y-111125000D01*
X194454236Y-110843691D01*
X194440708Y-110799093D01*
X197220000Y-108019802D01*
X197220000Y-108101184D01*
X197278989Y-108397743D01*
X197394701Y-108677095D01*
X197562688Y-108928505D01*
X197776495Y-109142312D01*
X198027905Y-109310299D01*
X198307257Y-109426011D01*
X198603816Y-109485000D01*
X198906184Y-109485000D01*
X199202743Y-109426011D01*
X199482095Y-109310299D01*
X199733505Y-109142312D01*
X199799944Y-109075873D01*
X199805498Y-109094180D01*
X199864463Y-109204494D01*
X199943815Y-109301185D01*
X200040506Y-109380537D01*
X200150820Y-109439502D01*
X200270518Y-109475812D01*
X200395000Y-109488072D01*
X202195000Y-109488072D01*
X202319482Y-109475812D01*
X202439180Y-109439502D01*
X202549494Y-109380537D01*
X202646185Y-109301185D01*
X202725537Y-109204494D01*
X202784502Y-109094180D01*
X202820812Y-108974482D01*
X202833072Y-108850000D01*
X202833072Y-108710000D01*
X204519099Y-108710000D01*
X204541068Y-108751101D01*
X204720392Y-108969608D01*
X204938899Y-109148932D01*
X205188192Y-109282182D01*
X205458691Y-109364236D01*
X205669508Y-109385000D01*
X205810492Y-109385000D01*
X206021309Y-109364236D01*
X206291808Y-109282182D01*
X206541101Y-109148932D01*
X206759608Y-108969608D01*
X206781689Y-108942702D01*
X215086903Y-108942702D01*
X215158486Y-109186671D01*
X215413996Y-109307571D01*
X215688184Y-109376300D01*
X215970512Y-109390217D01*
X216250130Y-109348787D01*
X216516292Y-109253603D01*
X216641514Y-109186671D01*
X216713097Y-108942702D01*
X215900000Y-108129605D01*
X215086903Y-108942702D01*
X206781689Y-108942702D01*
X206938932Y-108751101D01*
X207072182Y-108501808D01*
X207154236Y-108231309D01*
X207174998Y-108020512D01*
X214459783Y-108020512D01*
X214501213Y-108300130D01*
X214596397Y-108566292D01*
X214663329Y-108691514D01*
X214907298Y-108763097D01*
X215720395Y-107950000D01*
X216079605Y-107950000D01*
X216892702Y-108763097D01*
X217136671Y-108691514D01*
X217257571Y-108436004D01*
X217326300Y-108161816D01*
X217340217Y-107879488D01*
X217298787Y-107599870D01*
X217203603Y-107333708D01*
X217136671Y-107208486D01*
X216892702Y-107136903D01*
X216079605Y-107950000D01*
X215720395Y-107950000D01*
X214907298Y-107136903D01*
X214663329Y-107208486D01*
X214542429Y-107463996D01*
X214473700Y-107738184D01*
X214459783Y-108020512D01*
X207174998Y-108020512D01*
X207181943Y-107950000D01*
X207154236Y-107668691D01*
X207072182Y-107398192D01*
X206938932Y-107148899D01*
X206781690Y-106957298D01*
X215086903Y-106957298D01*
X215900000Y-107770395D01*
X216713097Y-106957298D01*
X216641514Y-106713329D01*
X216386004Y-106592429D01*
X216111816Y-106523700D01*
X215829488Y-106509783D01*
X215549870Y-106551213D01*
X215283708Y-106646397D01*
X215158486Y-106713329D01*
X215086903Y-106957298D01*
X206781690Y-106957298D01*
X206759608Y-106930392D01*
X206541101Y-106751068D01*
X206291808Y-106617818D01*
X206021309Y-106535764D01*
X205810492Y-106515000D01*
X205669508Y-106515000D01*
X205458691Y-106535764D01*
X205188192Y-106617818D01*
X204938899Y-106751068D01*
X204720392Y-106930392D01*
X204541068Y-107148899D01*
X204519099Y-107190000D01*
X202833072Y-107190000D01*
X202833072Y-107050000D01*
X202820812Y-106925518D01*
X202784502Y-106805820D01*
X202725537Y-106695506D01*
X202646185Y-106598815D01*
X202549494Y-106519463D01*
X202439180Y-106460498D01*
X202319482Y-106424188D01*
X202195000Y-106411928D01*
X200395000Y-106411928D01*
X200270518Y-106424188D01*
X200150820Y-106460498D01*
X200040506Y-106519463D01*
X199943815Y-106598815D01*
X199864463Y-106695506D01*
X199805498Y-106805820D01*
X199799944Y-106824127D01*
X199733505Y-106757688D01*
X199482095Y-106589701D01*
X199202743Y-106473989D01*
X198906184Y-106415000D01*
X198608336Y-106415000D01*
X198615001Y-106347332D01*
X198615001Y-106347323D01*
X198618677Y-106310000D01*
X198615001Y-106272677D01*
X198615001Y-101230000D01*
X198906184Y-101230000D01*
X199202743Y-101171011D01*
X199482095Y-101055299D01*
X199733505Y-100887312D01*
X199799944Y-100820873D01*
X199805498Y-100839180D01*
X199864463Y-100949494D01*
X199943815Y-101046185D01*
X200040506Y-101125537D01*
X200150820Y-101184502D01*
X200270518Y-101220812D01*
X200395000Y-101233072D01*
X202195000Y-101233072D01*
X202319482Y-101220812D01*
X202439180Y-101184502D01*
X202549494Y-101125537D01*
X202646185Y-101046185D01*
X202725537Y-100949494D01*
X202784502Y-100839180D01*
X202820812Y-100719482D01*
X202833072Y-100595000D01*
X202833072Y-100455000D01*
X204519099Y-100455000D01*
X204541068Y-100496101D01*
X204720392Y-100714608D01*
X204938899Y-100893932D01*
X205188192Y-101027182D01*
X205458691Y-101109236D01*
X205669508Y-101130000D01*
X205810492Y-101130000D01*
X206021309Y-101109236D01*
X206291808Y-101027182D01*
X206541101Y-100893932D01*
X206759608Y-100714608D01*
X206781689Y-100687702D01*
X215086903Y-100687702D01*
X215158486Y-100931671D01*
X215413996Y-101052571D01*
X215688184Y-101121300D01*
X215970512Y-101135217D01*
X216250130Y-101093787D01*
X216516292Y-100998603D01*
X216641514Y-100931671D01*
X216713097Y-100687702D01*
X215900000Y-99874605D01*
X215086903Y-100687702D01*
X206781689Y-100687702D01*
X206938932Y-100496101D01*
X207072182Y-100246808D01*
X207154236Y-99976309D01*
X207174998Y-99765512D01*
X214459783Y-99765512D01*
X214501213Y-100045130D01*
X214596397Y-100311292D01*
X214663329Y-100436514D01*
X214907298Y-100508097D01*
X215720395Y-99695000D01*
X216079605Y-99695000D01*
X216892702Y-100508097D01*
X217136671Y-100436514D01*
X217257571Y-100181004D01*
X217326300Y-99906816D01*
X217340217Y-99624488D01*
X217298787Y-99344870D01*
X217203603Y-99078708D01*
X217136671Y-98953486D01*
X216892702Y-98881903D01*
X216079605Y-99695000D01*
X215720395Y-99695000D01*
X214907298Y-98881903D01*
X214663329Y-98953486D01*
X214542429Y-99208996D01*
X214473700Y-99483184D01*
X214459783Y-99765512D01*
X207174998Y-99765512D01*
X207181943Y-99695000D01*
X207154236Y-99413691D01*
X207072182Y-99143192D01*
X206938932Y-98893899D01*
X206781690Y-98702298D01*
X215086903Y-98702298D01*
X215900000Y-99515395D01*
X216713097Y-98702298D01*
X216641514Y-98458329D01*
X216386004Y-98337429D01*
X216111816Y-98268700D01*
X215829488Y-98254783D01*
X215549870Y-98296213D01*
X215283708Y-98391397D01*
X215158486Y-98458329D01*
X215086903Y-98702298D01*
X206781690Y-98702298D01*
X206759608Y-98675392D01*
X206541101Y-98496068D01*
X206291808Y-98362818D01*
X206021309Y-98280764D01*
X205810492Y-98260000D01*
X205669508Y-98260000D01*
X205458691Y-98280764D01*
X205188192Y-98362818D01*
X204938899Y-98496068D01*
X204720392Y-98675392D01*
X204541068Y-98893899D01*
X204519099Y-98935000D01*
X202833072Y-98935000D01*
X202833072Y-98795000D01*
X202820812Y-98670518D01*
X202784502Y-98550820D01*
X202725537Y-98440506D01*
X202646185Y-98343815D01*
X202549494Y-98264463D01*
X202439180Y-98205498D01*
X202319482Y-98169188D01*
X202195000Y-98156928D01*
X200395000Y-98156928D01*
X200270518Y-98169188D01*
X200150820Y-98205498D01*
X200040506Y-98264463D01*
X199943815Y-98343815D01*
X199864463Y-98440506D01*
X199805498Y-98550820D01*
X199799944Y-98569127D01*
X199733505Y-98502688D01*
X199482095Y-98334701D01*
X199202743Y-98218989D01*
X198906184Y-98160000D01*
X198603816Y-98160000D01*
X198307257Y-98218989D01*
X198027905Y-98334701D01*
X197776495Y-98502688D01*
X197562688Y-98716495D01*
X197394701Y-98967905D01*
X197278989Y-99247257D01*
X197220000Y-99543816D01*
X197220000Y-99846184D01*
X197271966Y-100107436D01*
X197262249Y-100119276D01*
X197220027Y-100170723D01*
X197170684Y-100263036D01*
X197149455Y-100302753D01*
X197105998Y-100446014D01*
X197095001Y-100557667D01*
X197095001Y-100557677D01*
X197091325Y-100594999D01*
X197095001Y-100632322D01*
X197095002Y-105995196D01*
X194479402Y-108610796D01*
X194481943Y-108585000D01*
X194454236Y-108303691D01*
X194372182Y-108033192D01*
X194238932Y-107783899D01*
X194059608Y-107565392D01*
X193841101Y-107386068D01*
X193708142Y-107315000D01*
X193841101Y-107243932D01*
X194059608Y-107064608D01*
X194238932Y-106846101D01*
X194372182Y-106596808D01*
X194454236Y-106326309D01*
X194481943Y-106045000D01*
X194454236Y-105763691D01*
X194372182Y-105493192D01*
X194238932Y-105243899D01*
X194059608Y-105025392D01*
X193841101Y-104846068D01*
X193708142Y-104775000D01*
X193841101Y-104703932D01*
X194059608Y-104524608D01*
X194238932Y-104306101D01*
X194372182Y-104056808D01*
X194454236Y-103786309D01*
X194481943Y-103505000D01*
X194454236Y-103223691D01*
X194372182Y-102953192D01*
X194238932Y-102703899D01*
X194059608Y-102485392D01*
X193841101Y-102306068D01*
X193591808Y-102172818D01*
X193321309Y-102090764D01*
X193110492Y-102070000D01*
X192969508Y-102070000D01*
X192758691Y-102090764D01*
X192488192Y-102172818D01*
X192238899Y-102306068D01*
X192020392Y-102485392D01*
X191841068Y-102703899D01*
X191707818Y-102953192D01*
X191625764Y-103223691D01*
X191598057Y-103505000D01*
X191625764Y-103786309D01*
X191639292Y-103830906D01*
X186859402Y-108610797D01*
X186861943Y-108585000D01*
X186834236Y-108303691D01*
X186752182Y-108033192D01*
X186618932Y-107783899D01*
X186439608Y-107565392D01*
X186221101Y-107386068D01*
X186088142Y-107315000D01*
X186221101Y-107243932D01*
X186439608Y-107064608D01*
X186618932Y-106846101D01*
X186752182Y-106596808D01*
X186834236Y-106326309D01*
X186861943Y-106045000D01*
X186834236Y-105763691D01*
X186752182Y-105493192D01*
X186618932Y-105243899D01*
X186439608Y-105025392D01*
X186326518Y-104932581D01*
X186344482Y-104930812D01*
X186464180Y-104894502D01*
X186574494Y-104835537D01*
X186671185Y-104756185D01*
X186750537Y-104659494D01*
X186809502Y-104549180D01*
X186845812Y-104429482D01*
X186858072Y-104305000D01*
X186858072Y-102705000D01*
X186845812Y-102580518D01*
X186809502Y-102460820D01*
X186750537Y-102350506D01*
X186671185Y-102253815D01*
X186574494Y-102174463D01*
X186464180Y-102115498D01*
X186344482Y-102079188D01*
X186220000Y-102066928D01*
X184620000Y-102066928D01*
X184495518Y-102079188D01*
X184375820Y-102115498D01*
X184265506Y-102174463D01*
X184168815Y-102253815D01*
X184089463Y-102350506D01*
X184030498Y-102460820D01*
X183994188Y-102580518D01*
X183981928Y-102705000D01*
X183981928Y-104305000D01*
X183994188Y-104429482D01*
X184030498Y-104549180D01*
X184089463Y-104659494D01*
X184168815Y-104756185D01*
X184265506Y-104835537D01*
X184375820Y-104894502D01*
X184495518Y-104930812D01*
X184513482Y-104932581D01*
X184400392Y-105025392D01*
X184221068Y-105243899D01*
X184087818Y-105493192D01*
X184005764Y-105763691D01*
X183978057Y-106045000D01*
X184005764Y-106326309D01*
X184087818Y-106596808D01*
X184221068Y-106846101D01*
X184400392Y-107064608D01*
X184618899Y-107243932D01*
X184751858Y-107315000D01*
X184618899Y-107386068D01*
X184400392Y-107565392D01*
X184221068Y-107783899D01*
X184087818Y-108033192D01*
X184005764Y-108303691D01*
X183978057Y-108585000D01*
X184005764Y-108866309D01*
X184087818Y-109136808D01*
X184206448Y-109358750D01*
X182533997Y-111031202D01*
X182504999Y-111055000D01*
X182481201Y-111083998D01*
X182481200Y-111083999D01*
X182410025Y-111170725D01*
X182366582Y-111252000D01*
X182339453Y-111302754D01*
X182295996Y-111446015D01*
X182284999Y-111557668D01*
X182284999Y-111557679D01*
X182281323Y-111595000D01*
X182103665Y-111595000D01*
X181826426Y-111650147D01*
X181565273Y-111758320D01*
X181330241Y-111915363D01*
X181130363Y-112115241D01*
X181026957Y-112270000D01*
X178114802Y-112270000D01*
X173483688Y-107638887D01*
X173520000Y-107456335D01*
X173520000Y-107315000D01*
X180803057Y-107315000D01*
X180830764Y-107596309D01*
X180912818Y-107866808D01*
X181046068Y-108116101D01*
X181225392Y-108334608D01*
X181443899Y-108513932D01*
X181693192Y-108647182D01*
X181963691Y-108729236D01*
X182174508Y-108750000D01*
X182315492Y-108750000D01*
X182526309Y-108729236D01*
X182796808Y-108647182D01*
X183046101Y-108513932D01*
X183264608Y-108334608D01*
X183443932Y-108116101D01*
X183577182Y-107866808D01*
X183659236Y-107596309D01*
X183686943Y-107315000D01*
X183659236Y-107033691D01*
X183577182Y-106763192D01*
X183443932Y-106513899D01*
X183264608Y-106295392D01*
X183046101Y-106116068D01*
X182796808Y-105982818D01*
X182526309Y-105900764D01*
X182315492Y-105880000D01*
X182174508Y-105880000D01*
X181963691Y-105900764D01*
X181693192Y-105982818D01*
X181443899Y-106116068D01*
X181225392Y-106295392D01*
X181046068Y-106513899D01*
X180912818Y-106763192D01*
X180830764Y-107033691D01*
X180803057Y-107315000D01*
X173520000Y-107315000D01*
X173520000Y-107173665D01*
X173464853Y-106896426D01*
X173356680Y-106635273D01*
X173199637Y-106400241D01*
X172999759Y-106200363D01*
X172764727Y-106043320D01*
X172503574Y-105935147D01*
X172226335Y-105880000D01*
X171943665Y-105880000D01*
X171666426Y-105935147D01*
X171405273Y-106043320D01*
X171170241Y-106200363D01*
X170970363Y-106400241D01*
X170813320Y-106635273D01*
X170705147Y-106896426D01*
X170650000Y-107173665D01*
X142925000Y-107173665D01*
X142925000Y-102659721D01*
X152805000Y-102659721D01*
X152805000Y-103080279D01*
X152887047Y-103492756D01*
X153047988Y-103881302D01*
X153281637Y-104230983D01*
X153579017Y-104528363D01*
X153928698Y-104762012D01*
X154317244Y-104922953D01*
X154729721Y-105005000D01*
X155150279Y-105005000D01*
X155562756Y-104922953D01*
X155951302Y-104762012D01*
X156300983Y-104528363D01*
X156598363Y-104230983D01*
X156832012Y-103881302D01*
X156992953Y-103492756D01*
X157075000Y-103080279D01*
X157075000Y-102659721D01*
X156992953Y-102247244D01*
X156832012Y-101858698D01*
X156598363Y-101509017D01*
X156300983Y-101211637D01*
X155951302Y-100977988D01*
X155562756Y-100817047D01*
X155150279Y-100735000D01*
X154729721Y-100735000D01*
X154317244Y-100817047D01*
X153928698Y-100977988D01*
X153579017Y-101211637D01*
X153281637Y-101509017D01*
X153047988Y-101858698D01*
X152887047Y-102247244D01*
X152805000Y-102659721D01*
X142925000Y-102659721D01*
X142925000Y-98959775D01*
X169330000Y-98959775D01*
X169330000Y-100430224D01*
X169355105Y-100685118D01*
X169454314Y-101012167D01*
X169615421Y-101313577D01*
X169832234Y-101577766D01*
X170096422Y-101794579D01*
X170397832Y-101955686D01*
X170724881Y-102054895D01*
X171065000Y-102088394D01*
X171405118Y-102054895D01*
X171732167Y-101955686D01*
X172033577Y-101794579D01*
X172297766Y-101577766D01*
X172455139Y-101386006D01*
X172632419Y-101480764D01*
X172893493Y-101559960D01*
X173165000Y-101586701D01*
X173436506Y-101559960D01*
X173697580Y-101480764D01*
X173938187Y-101352157D01*
X174149080Y-101179081D01*
X174165000Y-101159683D01*
X174180919Y-101179080D01*
X174391812Y-101352157D01*
X174632419Y-101480764D01*
X174893493Y-101559960D01*
X175165000Y-101586701D01*
X175436506Y-101559960D01*
X175697580Y-101480764D01*
X175930885Y-101356060D01*
X175963815Y-101396185D01*
X176060506Y-101475537D01*
X176170820Y-101534502D01*
X176290518Y-101570812D01*
X176415000Y-101583072D01*
X176879250Y-101580000D01*
X177038000Y-101421250D01*
X177038000Y-99822000D01*
X177018000Y-99822000D01*
X177018000Y-99568000D01*
X177038000Y-99568000D01*
X177038000Y-97968750D01*
X177292000Y-97968750D01*
X177292000Y-99568000D01*
X177312000Y-99568000D01*
X177312000Y-99822000D01*
X177292000Y-99822000D01*
X177292000Y-101421250D01*
X177450750Y-101580000D01*
X177915000Y-101583072D01*
X178027496Y-101571992D01*
X178032234Y-101577766D01*
X178296422Y-101794579D01*
X178597832Y-101955686D01*
X178924881Y-102054895D01*
X179265000Y-102088394D01*
X179605118Y-102054895D01*
X179932167Y-101955686D01*
X180233577Y-101794579D01*
X180497766Y-101577766D01*
X180714579Y-101313578D01*
X180875686Y-101012168D01*
X180974895Y-100685119D01*
X181000000Y-100430225D01*
X181000000Y-98959775D01*
X180974895Y-98704881D01*
X180875686Y-98377832D01*
X180825353Y-98283665D01*
X182715000Y-98283665D01*
X182715000Y-98566335D01*
X182770147Y-98843574D01*
X182878320Y-99104727D01*
X183035363Y-99339759D01*
X183235241Y-99539637D01*
X183470273Y-99696680D01*
X183731426Y-99804853D01*
X184008665Y-99860000D01*
X184291335Y-99860000D01*
X184568574Y-99804853D01*
X184829727Y-99696680D01*
X185064759Y-99539637D01*
X185264637Y-99339759D01*
X185421680Y-99104727D01*
X185529853Y-98843574D01*
X185585000Y-98566335D01*
X185585000Y-98425000D01*
X192868057Y-98425000D01*
X192895764Y-98706309D01*
X192977818Y-98976808D01*
X193111068Y-99226101D01*
X193290392Y-99444608D01*
X193508899Y-99623932D01*
X193758192Y-99757182D01*
X194028691Y-99839236D01*
X194239508Y-99860000D01*
X194380492Y-99860000D01*
X194591309Y-99839236D01*
X194861808Y-99757182D01*
X195111101Y-99623932D01*
X195329608Y-99444608D01*
X195508932Y-99226101D01*
X195642182Y-98976808D01*
X195724236Y-98706309D01*
X195751943Y-98425000D01*
X195724236Y-98143691D01*
X195642182Y-97873192D01*
X195508932Y-97623899D01*
X195329608Y-97405392D01*
X195111101Y-97226068D01*
X194861808Y-97092818D01*
X194591309Y-97010764D01*
X194380492Y-96990000D01*
X194239508Y-96990000D01*
X194028691Y-97010764D01*
X193758192Y-97092818D01*
X193508899Y-97226068D01*
X193290392Y-97405392D01*
X193111068Y-97623899D01*
X192977818Y-97873192D01*
X192895764Y-98143691D01*
X192868057Y-98425000D01*
X185585000Y-98425000D01*
X185585000Y-98283665D01*
X185529853Y-98006426D01*
X185421680Y-97745273D01*
X185264637Y-97510241D01*
X185064759Y-97310363D01*
X184829727Y-97153320D01*
X184568574Y-97045147D01*
X184291335Y-96990000D01*
X184008665Y-96990000D01*
X183731426Y-97045147D01*
X183470273Y-97153320D01*
X183235241Y-97310363D01*
X183035363Y-97510241D01*
X182878320Y-97745273D01*
X182770147Y-98006426D01*
X182715000Y-98283665D01*
X180825353Y-98283665D01*
X180714579Y-98076422D01*
X180497766Y-97812234D01*
X180233578Y-97595421D01*
X179932168Y-97434314D01*
X179605119Y-97335105D01*
X179265000Y-97301606D01*
X178924882Y-97335105D01*
X178597833Y-97434314D01*
X178296423Y-97595421D01*
X178032235Y-97812234D01*
X178027497Y-97818008D01*
X177915000Y-97806928D01*
X177450750Y-97810000D01*
X177292000Y-97968750D01*
X177038000Y-97968750D01*
X176879250Y-97810000D01*
X176415000Y-97806928D01*
X176290518Y-97819188D01*
X176170820Y-97855498D01*
X176060506Y-97914463D01*
X175963815Y-97993815D01*
X175930886Y-98033940D01*
X175697581Y-97909236D01*
X175436507Y-97830040D01*
X175165000Y-97803299D01*
X174893494Y-97830040D01*
X174632420Y-97909236D01*
X174391813Y-98037843D01*
X174180920Y-98210919D01*
X174165000Y-98230317D01*
X174149081Y-98210919D01*
X173938188Y-98037843D01*
X173697581Y-97909236D01*
X173436507Y-97830040D01*
X173165000Y-97803299D01*
X172893494Y-97830040D01*
X172632420Y-97909236D01*
X172455139Y-98003994D01*
X172297766Y-97812234D01*
X172033578Y-97595421D01*
X171732168Y-97434314D01*
X171405119Y-97335105D01*
X171065000Y-97301606D01*
X170724882Y-97335105D01*
X170397833Y-97434314D01*
X170096423Y-97595421D01*
X169832235Y-97812234D01*
X169615422Y-98076422D01*
X169454315Y-98377832D01*
X169355105Y-98704881D01*
X169330000Y-98959775D01*
X142925000Y-98959775D01*
X142925000Y-95935000D01*
X217755000Y-95935000D01*
X217755001Y-133935000D01*
M02*
