M48
; DRILL file {KiCad (5.1.4)-1} date 04.11.2019 14:48:34
; FORMAT={-:-/ absolute / inch / decimal}
; #@! TF.CreationDate,2019-11-04T14:48:34+01:00
; #@! TF.GenerationSoftware,Kicad,Pcbnew,(5.1.4)-1
; #@! TF.FileFunction,Plated,1,2,PTH
FMAT,2
INCH
T1C0.0157
T2C0.0236
T3C0.0315
T4C0.0354
T5C0.0433
T6C0.0591
%
G90
G05
T1
X5.75Y-3.9
X5.75Y-5.15
X6.1Y-4.225
X6.1Y-4.425
X6.1Y-4.6
X6.525Y-3.9
X6.6Y-4.85
X6.975Y-4.55
X7.1203Y-4.1047
X7.2Y-4.875
X7.325Y-4.725
X7.3252Y-4.8629
X7.45Y-4.1
X7.475Y-4.425
X7.475Y-4.95
X7.65Y-4.5
X8.3Y-3.925
X8.3Y-4.25
X8.3Y-4.575
X8.3Y-4.85
X8.45Y-5.175
T2
X6.4508Y-4.7213
X6.5492Y-4.7213
T3
X8.1Y-4.875
X8.5Y-4.875
X6.875Y-4.95
X7.0719Y-4.95
X7.25Y-3.875
X7.65Y-3.875
X6.775Y-4.45
X7.175Y-4.45
X6.0781Y-5.15
X6.275Y-5.15
X6.775Y-4.225
X7.175Y-4.225
X8.1Y-4.575
X8.5Y-4.575
X6.95Y-5.15
X7.35Y-5.15
X6.775Y-4.675
X7.175Y-4.675
X8.1Y-4.25
X8.5Y-4.25
X6.425Y-5.15
X6.825Y-5.15
X8.1Y-3.925
X8.5Y-3.925
X6.8175Y-3.925
X6.8963Y-3.925
X6.975Y-3.925
X7.3Y-4.075
X7.3Y-4.175
X7.3Y-4.275
X7.3Y-4.375
X7.6Y-4.075
X7.6Y-4.175
X7.6Y-4.275
X7.6Y-4.375
T4
X7.825Y-3.925
X7.925Y-3.925
X7.825Y-4.25
X7.925Y-4.25
X7.825Y-4.575
X7.925Y-4.575
T5
X7.6941Y-4.8478
X7.6941Y-5.025
X7.95Y-4.8478
X7.95Y-5.025
T6
X6.7348Y-3.925
X7.0577Y-3.925
X6.1Y-4.05
X6.1Y-4.8567
T0
M30
